<?xml version="1.0" encoding="UTF-8"?>
<!DOCTYPE svg PUBLIC "-//W3C//DTD SVG 1.0//EN" "http://www.w3.org/TR/2001/REC-SVG-20010904/DTD/svg10.dtd">
<!-- Creator: CorelDRAW 2019 (64 Bit) -->
<svg xmlns="http://www.w3.org/2000/svg" xml:space="preserve" width="358px" height="500px" version="1.0" shape-rendering="geometricPrecision" text-rendering="geometricPrecision" image-rendering="optimizeQuality" fill-rule="evenodd" clip-rule="evenodd"
viewBox="0 0 2658 3717"
 xmlns:xlink="http://www.w3.org/1999/xlink">
 <g id="Camada_x0020_1">
  <metadata id="CorelCorpID_0Corel-Layer"/>
  <g id="_1609743054288">
   <rect fill="none" width="2658" height="3717"/>
   <g>
    <path fill="#FEFE00" d="M1882 778c8,9 33,25 46,34l137 99 -70 215c9,-4 122,-88 137,-99l46 -33c35,21 158,118 183,132l-69 -215 182 -133 -226 0c-6,-21 -65,-208 -71,-215l-69 215 -226 0z"/>
    <path fill="#FEFE00" d="M1259 409l-226 -1c8,9 34,26 45,34 15,11 30,22 45,33l69 50c7,4 16,13 24,16l-70 216 92 -66c11,-9 85,-64 92,-66 15,11 30,22 46,33l112 82c7,6 17,13 24,17l-70 -216c8,-3 16,-11 23,-16 21,-15 154,-110 160,-117l-226 1 -69 -216 -71 216z"/>
    <path fill="#FEFE00" d="M184 778c7,8 162,115 183,133l-70 215c16,-8 32,-23 47,-33l92 -67c14,-10 30,-23 45,-32l160 116c7,5 14,12 23,16l-70 -216c7,-4 16,-10 23,-16l69 -49c14,-11 84,-60 90,-67l-226 0 -70 -215 -69 215 -227 0z"/>
   </g>
   <g>
    <path fill="white" d="M953 2662c-3,-7 -4,-10 -6,-16l-16 -42c0,0 0,-1 -1,-1l-7 -22 -618 0c-1,35 22,134 32,168l10 33c15,47 32,88 52,131 4,7 7,16 10,22 3,6 7,12 10,19l34 59c11,19 25,36 37,54l67 86c3,2 5,4 8,7 20,24 42,45 66,68 4,5 4,4 9,8l92 75c30,21 62,42 94,59l58 31c8,3 15,7 22,10l42 18c7,3 15,5 22,8 30,12 61,22 93,30l48 12c108,23 221,28 336,17l79 -13c93,-18 146,-40 229,-73 43,-18 98,-51 137,-76 6,-4 13,-9 19,-13 23,-16 48,-33 70,-52l39 -35c14,-10 61,-56 69,-68l37 -42c10,-10 37,-49 45,-60 7,-12 17,-24 24,-36 11,-20 30,-45 40,-66l10 -21c16,-30 29,-63 43,-94 15,-32 25,-68 35,-102l14 -61c6,-29 16,-73 16,-103l-618 0c-2,5 -17,50 -24,66 -3,6 -4,12 -7,17 -4,6 -5,7 -8,14l-26 42c-9,12 -19,26 -30,36 -5,5 -6,6 -10,13 -4,5 -7,4 -12,9 -37,38 -88,72 -138,88 -11,3 -22,8 -34,11 -62,17 -138,21 -202,8 -12,-3 -25,-6 -36,-9 -47,-15 -95,-36 -133,-68l-74 -72c-3,-4 -2,-2 -5,-6l-18 -26c-4,-6 -6,-9 -9,-15l-16 -27z"/>
    <path fill="white" d="M1128 2458c0,47 6,72 29,113 10,18 13,18 20,28 7,10 15,16 24,23 5,5 5,6 12,11 42,30 78,38 128,38 14,0 48,-8 59,-14 28,-13 34,-15 58,-35 37,-31 48,-54 65,-100 10,-30 7,-71 1,-98 -6,-28 -20,-52 -36,-75 -3,-4 -5,-5 -8,-10l-51 -42c-18,-10 -31,-15 -53,-21 -69,-19 -141,6 -189,54l-17 21c-21,29 -42,71 -42,107z"/>
   </g>
   <g>
    <path fill="black" d="M305 2581l618 0 7 22c1,0 1,1 1,1l16 42c2,6 3,9 6,16l16 27c3,6 5,9 9,15l18 26c3,4 2,2 5,6l74 72c38,32 86,53 133,68 11,3 24,6 36,9 64,13 140,9 202,-8 12,-3 23,-8 34,-11 50,-16 101,-50 138,-88 5,-5 8,-4 12,-9 4,-7 5,-8 10,-13 11,-10 21,-24 30,-36l26 -42c3,-7 4,-8 8,-14 3,-5 4,-11 7,-17 7,-16 22,-61 24,-66l618 0c0,30 -10,74 -16,103l-14 61c-10,34 -20,70 -35,102 -14,31 -27,64 -43,94l-10 21c-10,21 -29,46 -40,66 -7,12 -17,24 -24,36 -8,11 -35,50 -45,60l-37 42c-8,12 -55,58 -69,68l-39 35c-22,19 -47,36 -70,52 -6,4 -13,9 -19,13 -39,25 -94,58 -137,76 -83,33 -136,55 -229,73l-79 13c-115,11 -228,6 -336,-17l-48 -12c-32,-8 -63,-18 -93,-30 -7,-3 -15,-5 -22,-8l-42 -18c-7,-3 -14,-7 -22,-10l-58 -31c-32,-17 -64,-38 -94,-59l-92 -75c-5,-4 -5,-3 -9,-8 -24,-23 -46,-44 -66,-68 -3,-3 -5,-5 -8,-7l-67 -86c-12,-18 -26,-35 -37,-54l-34 -59c-3,-7 -7,-13 -10,-19 -3,-6 -6,-15 -10,-22 -20,-43 -37,-84 -52,-131l-10 -33c-10,-34 -33,-133 -32,-168zm1062 1136l-76 0c-47,-1 -93,-5 -136,-10 -8,-1 -12,-1 -18,-2 -11,-2 -5,-3 -15,-4 -12,-2 -22,-4 -33,-5 -25,-4 -30,-7 -46,-11 -14,-3 -32,-5 -45,-11 -6,-2 -1,-1 -8,-3l-107 -35c-6,-2 -10,-3 -16,-5 -5,-2 -5,-3 -11,-6 -6,-3 -9,-3 -15,-5l-102 -50c-5,-4 -6,-4 -12,-6 -9,-4 -16,-10 -24,-14 -6,-3 -7,-3 -13,-7l-58 -37c-4,-3 -6,-5 -10,-8l-23 -15c-5,-4 -6,-5 -10,-8l-44 -33c-25,-20 -47,-43 -71,-63 -23,-19 -105,-106 -121,-130l-22 -30c-4,-4 -5,-7 -8,-11 -22,-28 -42,-59 -61,-90l-35 -61c-3,-4 -5,-8 -7,-12l-24 -50c-12,-26 -31,-70 -39,-96l-20 -57c-5,-14 -7,-30 -13,-44l-17 -68c-6,-22 -6,-47 -11,-69 -16,-64 -14,-152 -14,-221 0,-49 4,-98 10,-143l22 -112c3,-14 5,-30 11,-44 4,-10 5,-21 8,-31 3,-11 6,-18 10,-28l20 -57c2,-10 7,-17 11,-27l47 -104c5,-13 13,-23 20,-35l22 -38c10,-19 32,-49 45,-68l67 -87c8,-7 3,-4 8,-11l113 -115c4,-4 6,-4 10,-8 23,-22 49,-41 74,-61l22 -14c5,-4 6,-5 10,-8l69 -46c25,-14 48,-28 74,-41l90 -43c4,-2 9,-4 13,-5 10,-4 18,-8 27,-11l29 -10c24,-10 48,-17 73,-24 6,-1 9,-2 14,-3l77 -19c25,-6 55,-10 81,-13l16 -4c19,-3 34,-2 53,-4 62,-7 142,-5 204,0 14,1 23,1 36,3l108 17c20,6 42,7 61,14l21 6c6,2 11,3 16,4l71 24c9,3 20,6 29,9 9,3 17,8 27,11 17,6 40,19 52,23 27,10 74,36 101,52l71 44c12,8 21,17 32,24l33 24c15,12 28,22 42,35 5,4 7,4 12,8l123 123c4,4 7,5 10,10l82 108c3,4 5,6 7,10 4,6 3,7 8,13 16,23 29,47 43,71l15 24c7,11 17,37 24,50 2,5 4,7 7,12l28 68c6,13 9,29 15,41 9,17 24,79 27,88l32 148c10,73 11,137 11,212 0,35 -5,125 -11,152l-5 23c-3,22 -18,98 -24,118 -2,4 -1,2 -3,6 -6,13 -7,32 -13,45l-25 70c-7,18 -14,37 -22,54l-18 39c-2,5 -3,8 -6,13l-20 37c-3,5 -4,8 -6,13 -3,8 -10,16 -14,24l-14 24c-20,31 -39,61 -61,91 -6,7 -11,14 -17,21 -9,11 -15,22 -24,32l-54 61c-23,27 -82,79 -107,101 -4,4 -6,5 -11,9l-31 24c-11,7 -21,17 -33,25 -18,13 -37,27 -57,38 -5,3 -6,5 -12,8l-161 85c-10,6 -40,17 -54,22 -34,14 -66,25 -102,33l-13 5c-7,3 -22,5 -29,7l-31 8c-19,4 -45,6 -65,11l-15 4c-48,7 -99,11 -151,12zm-239 -1259c0,-36 21,-78 42,-107l17 -21c48,-48 120,-73 189,-54 22,6 35,11 53,21l51 42c3,5 5,6 8,10 16,23 30,47 36,75 6,27 9,68 -1,98 -17,46 -28,69 -65,100 -24,20 -30,22 -58,35 -11,6 -45,14 -59,14 -50,0 -86,-8 -128,-38 -7,-5 -7,-6 -12,-11 -9,-7 -17,-13 -24,-23 -7,-10 -10,-10 -20,-28 -23,-41 -29,-66 -29,-113zm-823 -109c0,-7 3,-19 4,-26 9,-58 21,-114 39,-169 11,-35 23,-66 38,-98l54 -107c16,-31 38,-62 59,-89 5,-6 8,-10 12,-17l14 -17c3,-4 3,-5 6,-8l20 -24c7,-9 9,-8 15,-15 3,-5 2,-4 7,-9 3,-4 4,-7 6,-9 1,-1 5,-2 8,-6l22 -22c3,-2 5,-4 8,-7 3,-3 4,-7 6,-8 1,-1 11,-8 24,-21l92 -72c18,-12 53,-37 72,-46 7,-4 11,-7 19,-11 6,-3 5,-3 10,-6 22,-12 45,-24 68,-34 15,-6 29,-12 43,-17l134 -43c33,-9 65,-16 99,-20 28,-2 79,-10 108,-10l75 0c12,0 17,2 29,2l132 17c47,10 95,24 139,39 22,7 44,17 65,25 5,1 6,2 10,4 47,22 93,45 136,73l27 17c24,16 58,39 78,59 10,9 23,16 31,27 4,4 4,3 9,6 15,12 31,31 44,45 4,3 5,4 9,8 7,6 14,18 21,23 6,4 8,11 14,16 6,6 8,10 13,16l26 32c54,70 85,130 122,208 4,8 6,13 9,20l17 44c5,15 11,28 15,43 13,49 26,96 34,146 2,17 6,33 6,51l-611 1c-12,0 -8,-4 -11,-13l-11 -33c-13,-37 -39,-83 -66,-113l-20 -23c-5,-5 -5,-7 -10,-12l-24 -20c-28,-21 -45,-36 -79,-54 -31,-15 -64,-27 -99,-34 -15,-3 -61,-10 -77,-10l-31 0c-8,0 -12,2 -22,2 -10,0 -12,1 -20,2 -74,5 -174,52 -227,106 -5,5 -8,6 -12,10l-21 23c-12,11 -29,37 -37,51l-31 58c-7,15 -13,32 -17,48 -3,10 -1,12 -12,12l-610 -1 0 -10z"/>
    <path fill="black" d="M184 778l227 0 69 -215 70 215 226 0c-6,7 -76,56 -90,67l-69 49c-7,6 -16,12 -23,16l70 216c-9,-4 -16,-11 -23,-16l-160 -116c-15,9 -31,22 -45,32l-92 67c-15,10 -31,25 -47,33l70 -215c-21,-18 -176,-125 -183,-133zm184 -60l-368 0 110 81c14,9 25,17 37,27 6,4 12,8 18,13 19,12 120,88 132,94 -3,14 -9,29 -13,43 -6,15 -10,28 -15,44 -10,30 -19,58 -29,88 -4,12 -55,166 -56,175 36,-24 112,-81 148,-107l128 -94c7,-5 13,-10 19,-14 7,2 13,8 19,12l56 41c6,4 11,8 18,13 7,4 12,9 19,14 13,9 25,18 38,27l37 27c12,10 23,17 37,27 10,7 67,52 75,54 -5,-10 -11,-31 -14,-42l-101 -308c8,-2 64,-45 75,-53l204 -148c5,-4 15,-9 18,-14l-366 0 -110 -338c-2,-9 1,-6 -5,-10 -5,23 -74,232 -83,261l-28 87z"/>
    <path fill="black" d="M1330 193l69 216 226 -1c-6,7 -139,102 -160,117 -7,5 -15,13 -23,16l70 216c-7,-4 -17,-11 -24,-17l-112 -82c-16,-11 -31,-22 -46,-33 -7,2 -81,57 -92,66l-92 66 70 -216c-8,-3 -17,-12 -24,-16l-69 -50c-15,-11 -30,-22 -45,-33 -11,-8 -37,-25 -45,-34l226 1 71 -216zm-115 157c-124,0 -242,-2 -366,-2 4,6 61,46 73,55 13,9 24,17 37,26l187 136 -57 173c-2,7 -55,166 -56,175 6,-3 13,-8 19,-13 6,-5 11,-8 19,-13l36 -27c13,-10 25,-18 37,-27l111 -81c12,-9 24,-18 37,-27 11,-7 27,-21 38,-27 18,16 87,63 110,81l37 27c7,4 11,8 18,13 7,5 13,9 19,14l111 80c0,-7 -4,-14 -6,-21l-107 -327c6,-4 12,-9 18,-13l261 -189c6,-4 15,-10 18,-15 -124,0 -242,2 -366,2 -2,-4 -108,-328 -113,-350 -6,7 -80,244 -86,262l-29 88z"/>
    <path fill="black" d="M1882 778l226 0 69 -215c6,7 65,194 71,215l226 0 -182 133 69 215c-25,-14 -148,-111 -183,-132l-46 33c-15,11 -128,95 -137,99l70 -215 -137 -99c-13,-9 -38,-25 -46,-34zm182 -60l-366 0c4,6 94,70 110,81 13,9 24,18 37,27 44,29 95,69 140,101 5,3 4,4 10,6l-100 306c-3,12 -10,34 -15,44 5,-2 14,-9 19,-12 23,-18 272,-201 280,-203l258 188c13,10 25,18 37,27 -1,-11 -10,-32 -13,-43 -5,-17 -9,-29 -14,-44 -10,-29 -19,-60 -29,-88l-57 -175c14,-7 161,-117 186,-133l74 -54c7,-5 12,-9 19,-14 5,-4 15,-9 18,-14l-368 0c-1,-10 -10,-33 -13,-43 -5,-16 -9,-29 -14,-44 -10,-29 -18,-58 -28,-87 -8,-24 -51,-153 -56,-174 -6,4 -2,1 -8,19l-92 285c-4,13 -9,33 -15,44z"/>
   </g>
   <path fill="red" d="M305 2349l0 10 610 1c11,0 9,-2 12,-12 4,-16 10,-33 17,-48l31 -58c8,-14 25,-40 37,-51l21 -23c4,-4 7,-5 12,-10 53,-54 153,-101 227,-106 8,-1 10,-2 20,-2 10,0 14,-2 22,-2l31 0c16,0 62,7 77,10 35,7 68,19 99,34 34,18 51,33 79,54l24 20c5,5 5,7 10,12l20 23c27,30 53,76 66,113l11 33c3,9 -1,13 11,13l611 -1c0,-18 -4,-34 -6,-51 -8,-50 -21,-97 -34,-146 -4,-15 -10,-28 -15,-43l-17 -44c-3,-7 -5,-12 -9,-20 -37,-78 -68,-138 -122,-208l-26 -32c-5,-6 -7,-10 -13,-16 -6,-5 -8,-12 -14,-16 -7,-5 -14,-17 -21,-23 -4,-4 -5,-5 -9,-8 -13,-14 -29,-33 -44,-45 -5,-3 -5,-2 -9,-6 -8,-11 -21,-18 -31,-27 -20,-20 -54,-43 -78,-59l-27 -17c-43,-28 -89,-51 -136,-73 -4,-2 -5,-3 -10,-4 -21,-8 -43,-18 -65,-25 -44,-15 -92,-29 -139,-39l-132 -17c-12,0 -17,-2 -29,-2l-75 0c-29,0 -80,8 -108,10 -34,4 -66,11 -99,20l-134 43c-14,5 -28,11 -43,17 -23,10 -46,22 -68,34 -5,3 -4,3 -10,6 -8,4 -12,7 -19,11 -19,9 -54,34 -72,46l-92 72c-13,13 -23,20 -24,21 -2,1 -3,5 -6,8 -3,3 -5,5 -8,7l-22 22c-3,4 -7,5 -8,6 -2,2 -3,5 -6,9 -5,5 -4,4 -7,9 -6,7 -8,6 -15,15l-20 24c-3,3 -3,4 -6,8l-14 17c-4,7 -7,11 -12,17 -21,27 -43,58 -59,89l-54 107c-15,32 -27,63 -38,98 -18,55 -30,111 -39,169 -1,7 -4,19 -4,26z"/>
  </g>
 </g>
</svg>
