<?xml version="1.0" encoding="UTF-8"?>
<!DOCTYPE svg PUBLIC "-//W3C//DTD SVG 1.0//EN" "http://www.w3.org/TR/2001/REC-SVG-20010904/DTD/svg10.dtd">
<!-- Creator: CorelDRAW 2019 (64 Bit) -->
<svg xmlns="http://www.w3.org/2000/svg" xml:space="preserve" width="358px" height="500px" version="1.0" shape-rendering="geometricPrecision" text-rendering="geometricPrecision" image-rendering="optimizeQuality" fill-rule="evenodd" clip-rule="evenodd"
viewBox="0 0 3876 5420"
 xmlns:xlink="http://www.w3.org/1999/xlink">
 <g id="Camada_x0020_1">
  <metadata id="CorelCorpID_0Corel-Layer"/>
  <g id="_1609723448992">
   <g>
    <path fill="#FDFDFD" d="M405 4232c0,0 1,4 1,4 2,7 0,2 2,6 3,6 4,-1 3,9 8,8 12,20 14,23 4,8 0,-2 4,5 1,10 -1,10 4,16 6,6 5,7 5,18 3,4 1,-3 8,11 4,9 2,1 7,14 7,21 12,16 15,28 3,12 2,3 9,21 0,0 0,1 1,1l5 7c3,7 0,6 6,15l17 25c5,10 -4,-2 8,14 3,5 4,10 7,15l41 65c7,4 6,2 10,10l34 48c4,5 13,11 11,20 7,1 5,1 10,8 13,19 77,93 93,110 4,4 5,5 8,8 5,5 5,4 6,10 5,1 2,-1 7,3 3,3 2,2 4,5 12,12 62,63 70,67l2 7 -1 0c9,2 7,2 13,8l76 64c7,5 12,9 18,14l27 20c0,0 4,3 4,3 4,4 2,1 3,5 14,2 19,11 25,16l38 25c16,10 7,7 17,12 3,3 3,2 6,4 6,4 10,3 11,11 7,1 13,4 16,9 9,1 3,-1 11,3 19,10 10,8 29,18 3,2 6,2 8,4 4,2 4,3 7,5l30 15c15,6 6,4 13,8 3,2 5,1 8,4l13 8c0,0 1,1 1,2 2,0 4,3 7,4 14,1 25,10 38,15 7,3 7,4 11,6 5,2 8,1 13,4 7,3 1,3 11,6l25 10c19,9 8,0 23,10 7,4 7,2 14,4 8,3 3,4 11,7 8,2 5,-1 12,4 16,10 5,-2 25,9 8,4 6,2 14,4 7,2 6,3 11,5 6,2 9,1 14,3 9,4 3,4 12,6 7,2 8,0 15,3 4,1 6,4 11,5 6,1 10,0 15,2 7,2 6,4 12,6 6,1 10,0 16,2 16,5 -1,4 26,7 13,1 10,4 19,7 3,1 5,0 9,0 13,2 15,8 24,9 13,1 20,-2 32,4 10,5 17,3 29,4 17,3 9,7 29,7 41,0 18,8 60,8 51,0 29,8 61,8 39,-1 62,-1 96,5 49,8 114,-4 163,-5 21,0 47,2 66,-3 35,-10 45,-1 61,-7 25,-10 32,-4 45,-7 5,-1 5,-3 12,-5 11,-2 20,-1 31,-2 11,-3 11,-7 28,-8 19,0 10,-5 27,-7 42,-4 10,-6 41,-9 13,-1 6,0 13,-4 12,-6 12,1 28,-8 11,-6 15,-1 26,-7 18,-11 9,3 27,-9 7,-4 2,-2 12,-3 11,-2 5,-2 12,-6 6,-2 8,-2 14,-3 7,-3 4,-4 12,-6 7,-2 7,0 13,-3 9,-5 0,-3 12,-6 13,-2 4,1 13,-4 7,-5 6,-2 14,-4 7,-2 3,-3 9,-6 6,-2 7,-1 13,-5 8,-4 4,-2 13,-5l88 -41c0,0 0,-1 1,-1l25 -13c6,-2 2,-1 6,-3 2,-1 1,-1 6,-4l16 -9c13,-7 -3,-2 16,-9 8,-2 6,-3 12,-6 2,-1 3,-1 6,-2l101 -63c5,-5 36,-27 42,-28 2,-5 23,-20 28,-24 9,-6 24,-15 29,-24l7 1 0 -6c8,-3 11,-6 15,-12l8 -1 -1 1c3,-10 1,-4 13,-15 5,-5 8,-6 13,-10 24,-20 54,-50 76,-72 17,-16 31,-31 49,-49 8,-8 16,-16 24,-25l21 -26c15,-15 22,-28 33,-41 11,-13 6,-8 10,-14 6,-7 9,-4 23,-26 6,-10 13,-15 20,-27 5,-8 5,-7 11,-14 16,-19 12,-21 20,-29 10,-12 12,-17 20,-29l14 -21c5,-9 6,-18 15,-21 0,-11 7,-15 11,-24l52 -95c3,-5 1,-3 3,-8 4,-9 1,-1 5,-7l6 -16c6,-9 9,-22 14,-31 3,-7 1,0 5,-7 1,-3 1,-5 2,-9l21 -46c4,-8 1,-8 6,-17l12 -36c3,-12 4,-4 7,-14 3,-12 0,-7 6,-18l10 -35c2,-12 3,-6 7,-14 3,-6 1,-12 4,-20 4,-8 4,-2 5,-17 0,-12 1,-9 5,-18 4,-7 2,-9 3,-18 2,-13 5,-10 7,-17 2,-7 0,-13 2,-20 3,-10 5,-4 6,-17 1,-6 1,-16 1,-22 -11,1 -14,5 -21,12l-38 24c-2,1 -3,2 -5,3 -6,4 -6,7 -12,9 -1,0 -1,0 -2,0 0,1 -1,1 -1,1l-13 7c-11,7 -24,11 -35,19l-52 24c-5,2 -8,1 -13,3 -8,3 -1,1 -8,5 -5,3 -6,2 -11,5l-32 13c-9,3 -18,10 -43,17 -9,2 -5,3 -10,6 -6,2 -8,1 -14,2 -9,1 -4,2 -11,5 -5,2 -6,1 -12,2 -10,3 -5,5 -22,9 -17,3 3,3 -22,8 -11,3 -4,2 -10,6 -6,3 -7,1 -13,2 -13,3 -4,6 -22,8 -13,1 -11,5 -24,7l-13 4c-8,4 -15,3 -24,5 -8,2 -3,3 -10,6 -8,3 -15,0 -24,5 -11,7 -14,2 -26,5 -11,3 -6,6 -22,7 -12,1 -15,5 -26,6 -17,3 -9,-1 -23,6 -10,6 -16,2 -27,5 -10,3 -7,6 -22,6 -21,1 -12,3 -25,7 -7,2 -19,1 -29,2 -2,3 -3,4 -5,8 -14,0 -23,-2 -32,5 -9,6 -16,3 -29,3 -17,1 -11,7 -25,8 -49,3 -27,-2 -34,44 -1,12 -8,19 -8,32 -1,21 -6,20 -8,33 -1,9 1,12 -2,19 -8,17 -5,24 -9,32 -8,15 -1,9 -11,30 -2,5 -2,10 -4,16 -3,7 -2,1 -4,8 -1,3 -1,5 -2,8 -3,8 -4,5 -7,13 -8,23 -8,14 -9,31l-8 2c-1,14 1,7 -5,15 -5,7 -1,7 -6,13l-13 25c-3,9 -29,48 -37,58 -3,5 -4,8 -7,13l-42 52c-5,6 -2,6 -10,9l0 1c-1,8 -9,15 -16,24l-70 65c-10,5 -7,8 -16,8 -1,7 1,4 -5,9 -4,3 -3,3 -6,5 -5,4 -12,9 -19,9 -4,3 -7,8 -13,11 -11,6 -7,1 -16,9l-28 18c-4,2 0,0 -4,2l-64 37c-5,2 -6,1 -11,3 -2,1 -5,3 -8,4 -14,8 -17,8 -28,11 -7,2 -2,1 -7,4l-30 10c-4,1 -7,1 -10,2 -10,2 0,5 -18,7 -20,2 -4,7 -39,8 -3,7 2,3 -6,7 -8,4 -21,1 -30,4 -16,7 -15,7 -35,7 -15,0 -24,4 -37,7 -13,2 -28,1 -42,1 -17,0 -92,0 -106,-3 -9,-2 -8,-4 -17,-5 -16,-1 -25,2 -40,-3 -26,-9 -22,-1 -37,-8 -8,-4 -4,-4 -17,-5 -14,0 -6,0 -15,-5 -8,-4 -12,-1 -20,-3 -8,-1 -6,-4 -14,-7 -12,-2 -7,1 -17,-4l-32 -12c-12,-3 -4,-3 -14,-7 -3,-2 -22,-7 -30,-13 -8,-6 -7,-3 -15,-7 -15,-9 -27,-13 -38,-22 -1,-1 -1,-1 -2,-1 0,-1 -1,-1 -1,-2 -8,-1 -14,-9 -20,-12 -4,-1 -4,0 -7,-2 -1,-1 -9,-8 -11,-10 -6,-4 -8,-4 -13,-7 -3,-2 -10,-8 -12,-10 -4,-3 -6,-8 -11,-10 -5,-3 -20,-10 -22,-17 -10,-3 -2,1 -10,-5 -20,-14 -78,-68 -92,-89 -16,-22 -13,-15 -27,-33 -4,-5 -5,-7 -8,-13 -6,-8 -15,-15 -20,-25 -4,-11 -4,-5 -9,-14 -4,-6 -7,-8 -7,-18 -3,-4 -7,-4 -7,-11 -10,-3 -4,-1 -9,-9 -5,-6 -5,-3 -7,-7 -3,-3 0,1 -2,-5 -2,-3 -2,-3 -3,-5 -8,-13 -3,-5 -6,-15l-7 -16c-4,-8 -3,-1 -6,-7 -2,-5 0,-6 -3,-11 -3,-6 -3,-1 -5,-10 -3,-8 0,-3 -4,-10 -4,-6 -3,-4 -5,-12l-8 -21c-2,-7 -4,-5 -6,-8 -5,-7 1,-9 -6,-20 -7,-11 -2,-12 -7,-23l-13 -45c0,-4 0,-4 -1,-7l-1 -5c-8,-20 -4,-15 -6,-37 -2,-20 -7,-1 -8,-49 0,-11 -1,-18 -11,-20 -14,-3 -12,0 -23,-1 -7,-1 -9,-6 -16,-7 -6,-2 -16,0 -23,-1 -10,0 -10,-4 -16,-6 -9,-3 -16,0 -25,-2 -8,-1 -7,-5 -16,-7 -9,-2 -25,2 -32,-4 -14,-12 1,-2 -27,-6 -11,-2 -2,-4 -14,-7 -7,-1 -12,0 -20,-2 -9,-2 -6,-4 -15,-6 -11,-2 -8,1 -17,-3 -22,-11 -22,-3 -36,-8 -29,-11 -12,1 -30,-11 -7,-4 -10,-2 -19,-3 -10,-1 -9,-3 -15,-6 -6,-2 -10,-1 -17,-3 -7,-3 -7,-5 -15,-6 -10,-1 -10,1 -18,-4 -21,-10 -26,1 -29,-14 -16,1 -13,-1 -22,-5 -11,-5 -9,1 -23,-7 -9,-5 -13,-2 -22,-7 -16,-10 -15,-2 -20,-7 -7,-2 -20,-4 -25,-7 -7,-4 -2,-3 -11,-5 -8,-1 -4,1 -10,-3 -15,-10 -9,-1 -21,-9l-32 -13c-6,-2 -4,-2 -9,-5 -5,-2 -7,0 -12,-3 -6,-3 -2,-3 -9,-5 -5,-2 -7,-1 -12,-3 -5,-3 -2,-2 -9,-5 -6,-3 -5,-1 -11,-5 -5,-3 -3,-2 -9,-4l-70 -37c-1,0 -1,0 -2,0 -17,-9 -7,-7 -23,-15 -24,-13 -16,-7 -36,-23l-3 -3c-1,0 -1,0 -2,-1 -10,-8 -5,-6 -15,-7 -1,41 6,25 8,42 1,9 -1,13 2,21 4,9 6,5 6,18 1,11 1,12 5,19 5,10 2,10 4,20 1,8 5,5 6,16 3,15 0,7 6,18 5,8 1,12 5,19 5,11 3,-3 6,17l12 35c6,8 2,10 6,18 1,4 2,3 4,8 2,4 1,5 2,10 2,7 4,4 7,15 3,11 6,10 7,20z"/>
    <path fill="#FDFDFD" d="M2244 3308c-1,5 -3,9 -7,13l-28 29c-8,6 -14,9 -21,16 -4,5 -3,6 -10,9 -8,4 -7,4 -15,6 -5,7 -15,11 -24,14 -3,1 -3,1 -6,2 -8,4 -1,4 -13,7 -21,6 4,4 -19,8 -14,3 -4,4 -16,6 -14,3 -4,-1 -13,6 -10,8 -13,1 -22,5 -10,5 -1,8 -20,8 -11,0 -15,-2 -25,3 -18,8 -113,8 -129,2 -30,-13 -23,2 -45,-10 -9,-5 -12,-3 -25,-3l-3 -6c-34,-1 -13,-3 -31,-8l-11 -5c-1,0 -1,0 -2,0l-12 -7c-7,-5 -7,-2 -14,-6l-18 -10c-24,-13 3,7 -15,-9 -1,-1 -1,-1 -2,-1 -13,-11 -6,-7 -14,-13 -6,-5 -19,-11 -24,-19 -11,-14 -29,-24 -33,-41 -6,-5 -8,-7 -11,-15l-21 -34c-4,-5 -2,0 -6,-8l-13 -26c-3,-6 -1,-5 -3,-10 -6,-14 -2,6 -7,-19 -4,-15 -11,-2 -9,-29 -13,-6 -7,-17 -9,-32 -1,-8 -4,-7 -6,-13 -5,-16 -3,-76 -3,-94 0,-14 0,-27 1,-40 1,-21 6,-4 7,-31 1,-14 4,-14 6,-23 1,-5 0,-6 1,-10 1,-12 6,-3 9,-20 0,-2 0,-7 0,-10 11,-4 7,-4 12,-15l42 -74c15,-14 23,-26 35,-38 15,-17 22,-18 37,-33 9,-10 12,-5 22,-15 7,-7 56,-32 57,-32 13,-4 3,2 12,-6 7,-6 5,-2 14,-5 4,-1 6,-4 12,-5 6,-2 10,0 16,-2 7,-2 4,-3 12,-6 10,-3 18,0 31,-4 10,-3 21,-4 32,-4 24,0 48,0 72,0 13,0 22,0 34,2 18,3 -3,3 31,5 15,1 12,7 27,9 20,1 1,3 28,8l24 11c12,7 35,16 47,25 8,6 16,9 22,14 3,2 6,6 9,8 9,8 13,5 31,24 0,0 1,1 1,1 20,20 12,9 27,32 0,0 1,1 1,1 0,0 0,1 1,1l16 24c2,3 5,7 8,11 4,6 4,5 3,14 14,1 2,3 13,15l12 27c2,11 3,2 5,14l1 13c16,8 7,10 11,24 3,12 6,8 7,25 0,19 8,16 8,57 0,21 0,43 0,64 0,40 -8,44 -8,55 -2,33 -1,13 -6,28 -2,7 0,9 -2,15 -1,8 -2,4 -5,9 -5,7 -2,6 -4,14 -2,7 -3,4 -5,10 -3,5 -2,6 -5,11l-24 50c-7,10 -23,34 -33,36zm-627 286l61 33c12,3 3,2 11,6 6,2 9,1 15,4l12 6c11,2 7,3 14,5 5,2 10,2 15,4 5,2 4,4 13,5 7,1 11,0 16,2 6,3 2,5 14,6 5,1 11,0 16,1 15,3 2,7 30,8 22,0 23,3 33,6 8,2 130,3 144,-2 30,-10 28,-2 48,-8 29,-10 18,-2 31,-7 11,-3 1,-4 11,-5 5,-5 8,-1 16,-4 11,-5 0,-5 17,-7 11,-1 9,-2 16,-6 6,-2 9,0 16,-4l64 -31c10,-8 24,-13 39,-24 5,-4 1,-2 5,-4 26,-14 26,-15 52,-35 1,0 1,0 2,-1l95 -94c7,-8 1,-4 9,-13 21,-22 22,-27 37,-51 8,-12 7,-13 14,-15 -1,-12 4,-9 14,-32l15 -33c6,-20 -1,-2 7,-15l10 -30c2,-8 5,-6 7,-13 3,-7 1,-14 4,-20 2,-5 1,4 4,-8 1,-3 0,-6 1,-10 1,-8 3,-8 6,-15 2,-8 0,-12 2,-20 2,-14 8,-9 8,-34 0,-25 3,-40 6,-61 3,-17 0,-46 -3,-60 -5,-20 1,-64 -6,-81 -6,-15 -3,-25 -8,-37l-13 -53c-2,-3 -5,-8 -7,-14l-20 -47c-4,-4 -2,0 -4,-6l-42 -77c-8,-11 -2,-7 -18,-26 -4,-4 -8,-9 -10,-12 -2,-2 -3,-4 -5,-7l-44 -52c-4,-4 -6,-7 -11,-11 -7,-7 -16,-14 -25,-20 -8,-7 -13,-14 -22,-21 -9,-6 -16,-11 -25,-18 -22,-16 -25,-15 -41,-26l-70 -37c-27,-13 -27,-7 -27,-16 -20,3 -21,-5 -32,-7 -28,-6 -5,-5 -31,-9 -14,-1 -14,-7 -32,-7 -23,-1 -16,-4 -30,-7 -12,-3 -26,-1 -38,-2 -12,-1 -23,-5 -32,-6 -15,-3 -62,-3 -74,1 -34,10 -57,2 -70,9 -16,8 -20,1 -33,6 -8,2 -4,4 -13,6 -5,1 -12,0 -17,1 -8,2 -3,4 -13,6 -9,3 -8,0 -16,4 -9,5 -4,3 -14,5l-28 12c-7,5 -7,2 -14,5 -5,2 -5,4 -13,7 -25,9 -63,34 -86,50 -39,26 -37,29 -65,50 -32,24 -55,59 -79,89l-12 14c-8,9 -30,50 -37,59 -16,24 -5,11 -13,26 -8,14 2,5 -8,21l-3 8c-3,8 -1,5 -8,9 -1,31 -3,10 -8,29 -4,13 -2,6 -5,12l-3 8c-4,23 -6,11 -8,26 -1,4 -1,4 -1,7 -4,14 -7,8 -7,29 0,6 0,13 -2,18 -3,8 -4,1 -6,11 -1,10 0,24 -1,35 -3,22 -6,40 -6,65 0,12 0,27 2,36 7,36 3,34 5,66 1,12 7,16 8,27 0,6 -1,11 1,17 4,16 3,-4 7,28 2,12 1,3 5,12 3,6 2,9 4,14 2,6 4,5 6,12 2,8 -1,7 3,15 3,6 3,5 5,12 3,9 3,5 7,13 2,5 1,8 4,13l13 23c12,18 18,39 32,56 3,3 5,5 8,9 0,1 1,1 1,1l80 97c39,36 33,30 72,61l25 18c19,13 17,5 21,17z"/>
   </g>
   <g>
    <path fill="#5F5F5F" d="M759 3240c-8,16 -14,5 -28,12 -11,5 -5,2 -17,4 -13,2 -5,3 -14,6l-46 17c-5,0 -4,-1 -8,1 -7,3 -6,5 -14,8l-7 3c-7,4 -8,2 -15,4l-16 7c-13,4 -2,4 -11,7l-27 11c-13,9 -8,4 -21,11 -2,1 -4,1 -7,3 -10,4 -16,11 -25,15 -5,1 -5,0 -10,3l-32 18c-5,3 -8,7 -11,9l-26 15c-26,14 -72,57 -88,75 -2,2 -9,9 -10,11 -6,8 -8,13 -17,24 -8,10 -11,23 -18,33 -6,8 -4,14 -8,24 -9,24 -5,27 -5,54 -1,23 5,18 7,34 2,12 0,6 6,15 4,6 2,8 5,14 3,4 3,2 5,7l12 18c6,7 9,18 16,25 7,7 13,13 20,21l66 57 28 14c9,5 10,12 28,22 3,2 3,2 6,4l54 29c4,4 6,3 13,6 5,2 1,1 8,4 17,6 31,16 33,17l45 16c9,3 3,5 14,8 13,4 4,-1 14,6 9,5 8,0 17,4 7,3 0,4 13,6 15,3 5,3 15,7 8,3 9,-1 17,3 7,4 -1,2 7,5 5,2 3,0 8,1 13,2 5,4 13,7 6,2 13,1 18,4 18,11 14,-2 31,10 8,5 7,1 16,3 10,3 0,6 14,7 9,1 10,-1 17,3 9,5 1,5 16,5 13,1 7,0 16,4 9,5 9,2 20,3 9,1 6,4 12,7 7,3 13,0 21,1 10,1 4,3 11,7 7,4 11,1 19,2 12,1 4,3 12,6 7,3 14,1 21,2 10,1 7,4 13,6 6,3 13,1 20,2 11,0 6,2 14,5 7,3 14,1 21,1 11,0 9,0 14,5 13,10 23,0 35,6 8,4 4,6 16,6 6,1 13,-1 19,0 15,3 9,9 34,8 24,-1 11,7 33,8 6,0 16,-1 22,0 9,1 5,4 12,7 9,3 10,-2 18,4 9,6 20,16 26,25 12,15 5,7 9,22 2,5 6,6 7,12 4,22 -1,59 0,83 1,19 8,13 8,33 0,7 -1,14 1,20 2,6 5,8 7,13 4,19 -8,17 9,29 0,10 -1,18 3,25 4,6 1,-3 3,5 1,3 0,3 1,6 1,11 5,9 8,17 1,5 0,6 2,11 4,8 3,0 6,8 3,10 0,12 10,30l21 38c4,7 8,9 10,16l8 12c3,6 4,12 8,18 4,5 9,7 13,14 4,10 3,8 10,16l17 23c1,1 4,5 6,7 7,9 16,16 25,25 8,9 17,18 26,27 5,5 10,10 14,14 4,3 11,7 15,10 8,5 21,21 29,24 13,5 8,2 16,11l25 15c7,6 3,2 9,4 6,3 2,3 8,7 7,5 17,8 25,13l27 12c12,4 0,-1 9,5 7,4 12,3 18,7 6,4 15,4 19,7 10,7 6,4 21,5 6,6 1,7 10,8 9,2 10,-2 18,3 6,3 1,5 13,6 7,0 12,-2 19,1 6,2 2,5 14,6 7,0 14,-1 20,-1 14,1 14,8 31,8 21,1 146,2 155,-2 6,-3 7,-5 14,-6 6,0 13,1 20,1 21,0 8,-9 31,-8 26,0 6,-8 31,-8 14,0 8,-1 15,-5 8,-6 7,-1 16,-4 6,-3 1,-5 12,-7 5,-1 5,0 9,-1 9,-3 2,-1 6,-4 4,-3 27,-8 35,-14 11,-7 36,-17 43,-23 4,-4 1,-3 6,-5 12,-5 7,-4 18,-11 16,-9 33,-18 47,-32 7,-7 13,-10 22,-17 22,-16 40,-38 60,-57 13,-12 22,-29 34,-42 17,-18 11,-19 26,-33 1,-1 4,-4 5,-5l5 -10c3,-5 4,-3 7,-7l9 -20c9,-16 15,-35 24,-51 4,-7 -1,1 2,-3 4,-6 4,-15 8,-20 7,-9 3,-3 5,-16 1,-10 0,-4 7,-10 0,-8 -1,-10 2,-17 4,-7 5,-3 5,-14 2,-29 7,-6 8,-27 1,-28 2,-10 7,-28 3,-11 -1,-23 1,-34 3,-12 8,-9 8,-28 0,-24 -2,-48 0,-71 0,-12 1,-5 4,-12 4,-7 2,-10 2,-17 1,-1 4,-2 5,-3 0,0 1,-1 1,-1 1,0 1,-1 1,-1l2 -2c4,-4 5,-6 9,-9 23,-18 9,-15 33,-19 11,-2 5,-3 12,-7 8,-4 21,1 31,-2 14,-3 4,-8 28,-7 23,1 13,-1 26,-7 9,-5 22,1 33,-3 11,-3 4,-7 25,-7 26,1 16,-6 28,-8 5,0 12,1 18,1 11,-1 6,-1 13,-6 9,-7 20,1 31,-4 6,-3 1,-5 10,-6 5,-1 11,0 16,0 17,-1 3,-8 27,-8 21,0 14,-7 26,-8 8,-1 10,2 16,-2 6,-3 1,-5 11,-6 16,-1 17,5 26,-7 9,-1 17,1 25,-4 11,-8 5,-3 20,-5 14,-1 2,-5 21,-6 11,-1 10,-2 16,-9 6,0 13,0 18,-2 14,-7 7,-5 26,-7 9,-15 10,-1 24,-10 16,-12 1,2 24,-10 8,-4 7,-1 16,-2 10,-2 3,-3 10,-6 7,-3 7,0 15,-4 8,-5 -2,-2 10,-6 11,-3 5,-1 12,-5 8,-4 7,-1 14,-4 6,-2 0,0 6,-3 6,-4 12,-2 17,-6 12,-9 25,-11 35,-17l57 -28c9,-4 3,-3 9,-7 4,-2 33,-16 39,-22l52 -38c4,-3 6,-5 11,-8 17,-10 30,-25 45,-38 14,-13 19,-25 30,-39 4,-4 14,-15 16,-19 3,-7 2,-5 6,-12 4,-7 1,-4 4,-11 3,-8 4,-3 7,-11 1,-5 0,-9 1,-14 2,-7 4,-5 7,-11 5,-12 1,-36 1,-49l-15 -51c-4,-12 -10,-23 -18,-32l-7 -10c-10,-17 -33,-37 -49,-52l-79 -59c-5,-2 -5,-3 -10,-7 -10,-7 -26,-13 -33,-18 -5,-3 0,0 -6,-4 -3,-2 -2,-1 -5,-3 -8,-3 -4,-3 -9,-6l-35 -17c-8,-5 -3,-4 -10,-7 -9,-3 -5,2 -13,-5 -7,-6 0,-1 -9,-5l-7 -4c-2,-1 -1,-1 -5,-2 -7,-2 -6,-1 -12,-4l-58 -25c0,0 0,0 -1,-1 -6,-4 -6,-2 -13,-3 -7,-2 -5,-3 -12,-6 -5,-2 -2,-1 -6,-2l-12 -5c-6,-3 -13,-2 -19,-5 -12,-7 -18,-2 -28,-8 -8,-4 -1,-3 -14,-4 -15,-2 -10,-6 -25,-8 -12,-2 -11,-8 -24,-9 -4,0 -3,0 -7,-1 -7,-2 0,0 -5,-3 -12,-6 -20,1 -29,-6 -7,-6 -9,-4 -19,-6 -8,-2 -1,0 -6,-2 -13,-7 -16,-2 -28,-6 -11,-3 -10,-7 -25,-8 -18,-1 -8,-6 -30,-6 -18,-1 -13,-6 -25,-8 -6,-1 -11,1 -16,-1 -5,-2 -5,-4 -9,-6 -8,-4 -20,-1 -30,-4 -13,-4 -12,-6 -29,-6 -18,0 -12,-5 -27,-7 -15,-2 -14,1 -28,-5 -7,-4 -26,-9 -29,2 -1,4 -1,3 -1,6 -1,13 -6,15 -7,27 -1,7 0,17 -1,23 -2,10 -5,7 -7,17 -1,7 1,15 -2,21 -4,9 -5,2 -6,18 -1,10 0,10 -5,18 -7,9 -2,5 -5,16 -3,9 -5,5 -7,17 -3,10 -4,7 -7,17l-7 16c-3,6 0,10 -4,17l-13 23c-2,5 0,3 -3,9 -2,5 -2,2 -5,7l-18 38c-7,17 -29,39 -37,57l-10 14c-23,37 -64,80 -94,114l-24 21c-10,10 -1,1 -14,9 -11,6 -15,17 -24,23 -29,16 -10,6 -28,19 -13,10 -30,16 -43,26 -16,12 -21,11 -30,17l-13 8c-16,9 -20,9 -32,15l-47 22c-17,2 -7,4 -16,7 -4,1 -6,0 -11,2 -3,1 -4,2 -7,4 -8,3 -12,1 -19,4 -22,11 -23,4 -37,10 -16,8 -24,-1 -37,8 -13,9 -30,0 -42,6 -7,3 -3,6 -17,6 -7,0 -15,0 -22,0 -7,0 -15,-1 -23,1 -5,1 -10,3 -18,4 -14,2 -27,3 -43,3 -49,0 -44,-9 -86,-8 -41,0 -24,-4 -40,-8 -7,-1 -16,0 -23,0 -15,0 -7,-2 -15,-6 -6,-4 -15,-2 -22,-2l-35 -8c-10,-2 -6,-5 -15,-7 -12,-3 -8,2 -19,-4l-35 -12c-12,-3 -3,-4 -14,-8 -7,-2 -3,1 -9,-2 -12,-7 -30,-13 -40,-20l-46 -24c-9,-5 -17,-13 -27,-18 -15,-7 -27,-21 -41,-29 -5,-2 -5,-2 -9,-4 0,0 -3,-2 -5,-4l-39 -32c-4,-3 -9,-6 -12,-9l-46 -48c-9,-8 -11,-17 -21,-26l-30 -38c-5,-7 -7,-7 -11,-13 -5,-7 -8,-15 -14,-22 -10,-11 -18,-28 -26,-42l-20 -37c-3,-5 -1,-3 -4,-8 -4,-6 -2,0 -5,-6l-19 -44c-6,-13 -4,-15 -8,-22 -1,-3 -2,-2 -4,-7 -3,-5 -1,-4 -2,-9 -2,-11 -4,-5 -7,-16 -2,-7 0,-11 -4,-19 -3,-7 -1,3 -3,-9 -4,-18 -7,-16 -9,-26 -1,-7 0,-13 -1,-20 -2,-7 -6,-9 -7,-17 -1,-9 1,-12 -2,-21 -6,-15 -5,-14 -6,-29 -1,-7 1,-3 -2,-8 -3,-3 -14,-5 -28,0 -12,4 -18,2 -27,5 -7,3 -8,7 -21,9 -25,3 -6,-1 -24,5 -9,3 -20,1 -29,3 -10,2 -10,6 -23,7l-11 0c-7,2 -7,6 -11,8 -6,2 -16,0 -22,2 -5,2 -4,2 -4,2 -13,6 -13,2 -26,5 -7,2 -6,4 -10,5 -4,2 -8,2 -13,2l-14 4c-9,5 -16,3 -26,5 -9,2 -2,1 -8,5 -8,5 -14,0 -25,7 -11,6 -14,0 -24,5 -2,1 -8,6 -9,6 -5,2 -8,0 -14,2 -12,5 -4,6 -25,6z"/>
    <path fill="#5F5F5F" d="M2523 4674c8,-3 5,-3 10,-9l42 -52c3,-5 4,-8 7,-13 8,-10 34,-49 37,-58l13 -25c5,-6 1,-6 6,-13 6,-8 4,-1 5,-15l8 -2c1,-17 1,-8 9,-31 3,-8 4,-5 7,-13 1,-3 1,-5 2,-8 2,-7 1,-1 4,-8 2,-6 2,-11 4,-16 10,-21 3,-15 11,-30 4,-8 1,-15 9,-32 3,-7 1,-10 2,-19 2,-13 7,-12 8,-33 0,-13 7,-20 8,-32 7,-46 -15,-41 34,-44 14,-1 8,-7 25,-8 13,0 20,3 29,-3 9,-7 18,-5 32,-5 2,-4 3,-5 5,-8 10,-1 22,0 29,-2 13,-4 4,-6 25,-7 15,0 12,-3 22,-6 11,-3 17,1 27,-5 14,-7 6,-3 23,-6 11,-1 14,-5 26,-6 16,-1 11,-4 22,-7 12,-3 15,2 26,-5 9,-5 16,-2 24,-5 7,-3 2,-4 10,-6 9,-2 16,-1 24,-5l13 -4c13,-2 11,-6 24,-7 18,-2 9,-5 22,-8 6,-1 7,1 13,-2 6,-4 -1,-3 10,-6 25,-5 5,-5 22,-8 17,-4 12,-6 22,-9 6,-1 7,0 12,-2 7,-3 2,-4 11,-5 6,-1 8,0 14,-2 5,-3 1,-4 10,-6 25,-7 34,-14 43,-17l32 -13c5,-3 6,-2 11,-5 7,-4 0,-2 8,-5 5,-2 8,-1 13,-3l52 -24c11,-8 24,-12 35,-19l13 -7c0,0 1,0 1,-1 1,0 1,0 2,0 6,-2 6,-5 12,-9 2,-1 3,-2 5,-3l38 -24c7,-7 10,-11 21,-12 0,6 0,16 -1,22 -1,13 -3,7 -6,17 -2,7 0,13 -2,20 -2,7 -5,4 -7,17 -1,9 1,11 -3,18 -4,9 -5,6 -5,18 -1,15 -1,9 -5,17 -3,8 -1,14 -4,20 -4,8 -5,2 -7,14l-10 35c-6,11 -3,6 -6,18 -3,10 -4,2 -7,14l-12 36c-5,9 -2,9 -6,17l-21 46c-1,4 -1,6 -2,9 -4,7 -2,0 -5,7 -5,9 -8,22 -14,31l-6 16c-4,6 -1,-2 -5,7 -2,5 0,3 -3,8l-52 95c-4,9 -11,13 -11,24 8,0 0,2 4,-2 6,-5 22,-39 28,-48l75 -149c5,-10 7,-24 13,-34 4,-8 4,-12 7,-17 4,-6 1,2 4,-6 1,-3 1,-7 2,-10 2,-9 5,-6 7,-17l24 -70c3,-16 1,-7 6,-18 3,-7 1,-12 4,-19 4,-9 5,-3 6,-18 1,-12 1,-8 6,-17 4,-9 1,-11 3,-20 3,-7 5,-4 7,-16l2 -16c4,-11 6,-9 6,-23 0,-19 13,-28 6,-36 -9,-9 -33,16 -44,22 -4,2 -8,5 -12,8l-16 11c-4,3 1,0 -4,3l-106 56c-18,4 -24,11 -39,16l-78 31c-12,3 -7,4 -27,9 -7,2 -7,4 -11,6 -6,2 -8,0 -15,3 -10,5 -26,12 -39,14 -10,1 -8,3 -14,6 -6,2 -8,1 -15,3 -7,2 -3,3 -11,5 -6,2 -10,1 -15,3 -6,2 -7,5 -14,6 -6,1 -10,1 -15,2 -9,3 -5,4 -12,6 -6,1 -11,0 -17,2 -9,2 -4,4 -13,6 -6,1 -10,0 -16,2 -18,6 6,2 -28,7 -12,1 -8,6 -28,7 -17,2 -9,7 -27,8 -18,1 -16,7 -29,8 -6,0 -13,0 -18,1 -9,1 -7,3 -12,5 -8,4 -21,1 -30,5 -13,6 -13,3 -29,6 -15,2 -11,5 -31,7 -18,1 -19,5 -26,7 -11,2 -21,-1 -33,4 -12,6 -18,2 -27,6 -11,8 -4,21 -8,35 -3,12 -6,21 -6,35 -1,19 -6,19 -8,34 -1,6 0,12 -2,18 -2,5 -4,4 -5,13 -2,10 0,11 -4,19 -5,9 -3,21 -9,30 0,1 -1,1 -2,3l-4 12c0,0 -1,0 -1,1 -6,8 1,-7 -3,4 0,2 -1,7 -1,9l-11 29c-4,7 -21,49 -33,69l-53 88c-1,1 -7,8 -9,10 -7,8 -10,16 -17,24 -6,7 -15,14 -17,24z"/>
    <path fill="#5F5F5F" d="M1617 3594c-4,-12 -2,-4 -21,-17l-25 -18c-39,-31 -33,-25 -72,-61l-80 -97c0,0 -1,0 -1,-1 -3,-4 -5,-6 -8,-9 -14,-17 -20,-38 -32,-56l-13 -23c-3,-5 -2,-8 -4,-13 -4,-8 -4,-4 -7,-13 -2,-7 -2,-6 -5,-12 -4,-8 -1,-7 -3,-15 -2,-7 -4,-6 -6,-12 -2,-5 -1,-8 -4,-14 -4,-9 -3,0 -5,-12 -4,-32 -3,-12 -7,-28 -2,-6 -1,-11 -1,-17 -1,-11 -7,-15 -8,-27 -2,-32 2,-30 -5,-66 -2,-9 -2,-24 -2,-36 0,-25 3,-43 6,-65 1,-11 0,-25 1,-35 2,-10 3,-3 6,-11 2,-5 2,-12 2,-18 0,-21 3,-15 7,-29 0,-3 0,-3 1,-7 2,-15 4,-3 8,-26l3 -8c3,-6 1,1 5,-12 5,-19 7,2 8,-29 7,-4 5,-1 8,-9l3 -8c10,-16 0,-7 8,-21 8,-15 -3,-2 13,-26 7,-9 29,-50 37,-59l12 -14c24,-30 47,-65 79,-89 28,-21 26,-24 65,-50 23,-16 61,-41 86,-50 8,-3 8,-5 13,-7 7,-3 7,0 14,-5l28 -12c10,-2 5,0 14,-5 8,-4 7,-1 16,-4 10,-2 5,-4 13,-6 5,-1 12,0 17,-1 9,-2 5,-4 13,-6 13,-5 17,2 33,-6 13,-7 36,1 70,-9 12,-4 59,-4 74,-1 9,1 20,5 32,6 12,1 26,-1 38,2 14,3 7,6 30,7 18,0 18,6 32,7 26,4 3,3 31,9 11,2 12,10 32,7 -5,-5 -10,-3 -15,-6 -7,-4 -3,-4 -13,-6 -8,-1 -48,-15 -59,-16 -12,-1 -19,-5 -30,-7 -11,-2 -22,0 -33,-4 -24,-6 -119,-7 -144,-2 -35,7 -33,2 -64,11 -12,4 -18,0 -31,7 -15,7 -8,-3 -28,8 -7,4 -10,2 -16,4 -4,1 -7,4 -12,6 -7,2 -8,0 -15,4l-89 43c-18,12 -51,32 -66,45l-32 26c-26,17 -59,62 -82,86l-71 115c-3,9 -19,37 -23,53 -4,14 -3,4 -6,13 -2,5 -2,10 -3,15 -2,7 -4,5 -6,14 -2,6 -1,10 -3,15 -2,8 -4,3 -5,13 -1,6 -1,12 -2,18 -2,11 -6,11 -7,29 -1,25 -7,41 -8,67 -1,25 -1,51 0,76 1,46 7,37 8,67 1,31 3,19 7,30 3,14 0,16 6,31 4,10 1,22 7,31 6,9 2,5 5,14 3,9 3,4 6,12 2,7 0,11 4,16 0,0 2,3 2,3l17 35c3,6 2,6 6,13l13 24c11,21 41,61 44,68 7,12 14,16 25,29 11,14 23,27 35,40l81 68c7,6 14,10 22,15l12 8c5,2 8,4 14,6z"/>
    <path fill="#5F5F5F" d="M1197 5087l48 26c11,3 4,-1 12,4l7 4c24,7 5,2 17,8 6,2 7,1 12,4 23,13 5,-3 22,9l11 4c12,3 2,3 15,7 9,3 4,1 12,5 7,4 6,2 14,4 7,3 4,4 12,6 5,2 8,1 13,3 6,2 4,3 11,5 13,5 3,-1 13,4 14,8 77,22 80,24 15,8 16,2 29,6 13,4 -7,2 27,7 11,2 10,7 27,8 19,1 15,3 27,6 16,5 7,-4 38,7 2,1 4,1 6,2 17,3 17,-3 47,6 10,3 19,2 31,3 15,0 16,4 29,6 18,3 53,0 95,7 39,7 154,3 198,-3 20,-4 44,-2 64,-4 13,-1 19,-5 32,-6 11,-1 23,0 33,-1 13,-2 16,-7 29,-7 11,-1 22,1 31,-3 21,-8 6,-4 30,-5 14,-1 13,-7 25,-8 34,-3 14,-3 28,-7 14,-4 14,2 27,-6l55 -14c7,-4 1,-4 12,-5 29,-3 11,-5 27,-8l39 -13c7,-4 5,-1 14,-3 7,-2 5,-4 10,-6 6,-2 9,-1 14,-3 9,-4 21,-11 37,-15 8,-2 6,-3 12,-5 5,-3 8,-2 13,-5l24 -11c6,-3 6,-1 13,-5 7,-4 2,-2 11,-6l23 -10c8,-4 5,-3 13,-6l154 -86c4,-3 6,-4 10,-6 10,-5 13,-10 21,-14 7,-5 6,-2 11,-6 17,-14 15,-11 30,-22 17,-13 16,-8 17,-17 -6,1 -37,23 -42,28l-101 63c-3,1 -4,1 -6,2 -6,3 -4,4 -12,6 -19,7 -3,2 -16,9l-16 9c-5,3 -4,3 -6,4 -4,2 0,1 -6,3l-25 13c-1,0 -1,1 -1,1l-88 41c-9,3 -5,1 -13,5 -6,4 -7,3 -13,5 -6,3 -2,4 -9,6 -8,2 -7,-1 -14,4 -9,5 0,2 -13,4 -12,3 -3,1 -12,6 -6,3 -6,1 -13,3 -8,2 -5,3 -12,6 -6,1 -8,1 -14,3 -7,4 -1,4 -12,6 -10,1 -5,-1 -12,3 -18,12 -9,-2 -27,9 -11,6 -15,1 -26,7 -16,9 -16,2 -28,8 -7,4 0,3 -13,4 -31,3 1,5 -41,9 -17,2 -8,7 -27,7 -17,1 -17,5 -28,8 -11,1 -20,0 -31,2 -7,2 -7,4 -12,5 -13,3 -20,-3 -45,7 -16,6 -26,-3 -61,7 -19,5 -45,3 -66,3 -49,1 -114,13 -163,5 -34,-6 -57,-6 -96,-5 -32,0 -10,-8 -61,-8 -42,0 -19,-8 -60,-8 -20,0 -12,-4 -29,-7 -12,-1 -19,1 -29,-4 -12,-6 -19,-3 -32,-4 -9,-1 -11,-7 -24,-9 -4,0 -6,1 -9,0 -9,-3 -6,-6 -19,-7 -27,-3 -10,-2 -26,-7 -6,-2 -10,-1 -16,-2 -6,-2 -5,-4 -12,-6 -5,-2 -9,-1 -15,-2 -5,-1 -7,-4 -11,-5 -7,-3 -8,-1 -15,-3 -9,-2 -3,-2 -12,-6 -5,-2 -8,-1 -14,-3 -5,-2 -4,-3 -11,-5 -8,-2 -6,0 -14,-4 -20,-11 -9,1 -25,-9 -7,-5 -4,-2 -12,-4 -8,-3 -3,-4 -11,-7 -7,-2 -7,0 -14,-4 -15,-10 -4,-1 -23,-10l-25 -10c-10,-3 -4,-3 -11,-6 -5,-3 -8,-2 -13,-4 -4,-2 -4,-3 -11,-6 -13,-5 -24,-14 -38,-15z"/>
    <path fill="#5F5F5F" d="M2483 3369l25 -40c7,-20 1,-2 7,-14l7 -16c3,-6 3,-10 5,-16 12,-22 5,-15 9,-25 4,-10 2,1 5,-16l5 -9c0,0 0,-1 0,-1l3 -16c1,-9 0,-4 4,-11 5,-11 2,-14 5,-25 5,-19 5,-2 7,-35 1,-12 5,-25 7,-38 3,-26 1,-61 1,-87 0,-33 -6,-50 -8,-81 -1,-13 -7,-19 -8,-35 0,-6 -1,-15 -3,-19 -8,-18 -2,-6 -5,-18 -2,-6 -5,-9 -7,-15 -5,-17 -5,-22 -14,-40 -3,-6 -1,-3 -3,-9l-21 -44c-9,-15 -16,-34 -33,-55 -3,-4 -5,-11 -8,-15 -21,-31 -55,-68 -81,-96 -21,-23 -19,-17 -35,-30 -23,-19 -39,-34 -65,-47 -3,-2 -2,-2 -5,-4 0,0 0,-1 -1,-1l-2 -2c-1,0 -3,-2 -4,-2l-49 -27c-4,-3 -3,-2 -8,-4l-22 -10c-4,-2 -17,-9 -25,-9 0,9 0,3 27,16l70 37c16,11 19,10 41,26 9,7 16,12 25,18 9,7 14,14 22,21 9,6 18,13 25,20 5,4 7,7 11,11l44 52c2,3 3,5 5,7 2,3 6,8 10,12 16,19 10,15 18,26l42 77c2,6 0,2 4,6l20 47c2,6 5,11 7,14l13 53c5,12 2,22 8,37 7,17 1,61 6,81 3,14 6,43 3,60 -3,21 -6,36 -6,61 0,25 -6,20 -8,34 -2,8 0,12 -2,20 -3,7 -5,7 -6,15 -1,4 0,7 -1,10 -3,12 -2,3 -4,8 -3,6 -1,13 -4,20 -2,7 -5,5 -7,13l-10 30c-8,13 -1,-5 -7,15l-15 33c-10,23 -15,20 -14,32z"/>
    <path fill="#5F5F5F" d="M1557 3163c0,-1 0,-2 0,-2 -1,0 -1,-1 -1,-2 0,0 0,-1 -1,-1 0,0 0,-1 0,-1 -5,-15 -2,-19 -3,-32 -2,-13 -7,-18 -7,-39 0,-26 -2,-65 1,-89 1,-16 6,-19 7,-38 0,-11 0,-9 4,-17 5,-9 2,-10 5,-19 2,-8 4,-3 6,-15 4,-19 4,-2 9,-24l12 -24c6,-9 1,-6 7,-14 3,-6 4,-8 8,-15 4,-7 7,-8 10,-13 7,-10 2,-10 18,-26 16,-15 52,-57 70,-65 8,-4 6,-4 14,-10 7,-5 8,-4 14,-8 11,-6 34,-19 45,-22 12,-3 6,-4 16,-7 5,-1 5,0 10,-2 6,-3 1,-2 6,-5 7,-3 11,-1 19,-2 9,-2 7,-6 16,-7 7,-1 14,0 21,-1 8,-2 9,-4 17,-6l111 -1c10,1 9,4 16,6 7,2 14,1 21,1 13,1 9,2 18,6 8,4 11,1 19,3 9,2 3,5 16,7 13,3 65,28 76,36 6,4 8,7 13,10 10,4 7,2 13,8l36 33c14,15 31,31 41,49 4,7 4,4 9,12 5,6 5,11 10,14 1,-9 1,-8 -3,-14 -3,-4 -6,-8 -8,-11l-16 -24c-1,0 -1,-1 -1,-1 0,0 -1,-1 -1,-1 -15,-23 -7,-12 -27,-32 0,0 -1,-1 -1,-1 -18,-19 -22,-16 -31,-24 -3,-2 -6,-6 -9,-8 -6,-5 -14,-8 -22,-14 -12,-9 -35,-18 -47,-25l-24 -11c-27,-5 -8,-7 -28,-8 -15,-2 -12,-8 -27,-9 -34,-2 -13,-2 -31,-5 -12,-2 -21,-2 -34,-2 -24,0 -48,0 -72,0 -11,0 -22,1 -32,4 -13,4 -21,1 -31,4 -8,3 -5,4 -12,6 -6,2 -10,0 -16,2 -6,1 -8,4 -12,5 -9,3 -7,-1 -14,5 -9,8 1,2 -12,6 -1,0 -50,25 -57,32 -10,10 -13,5 -22,15 -15,15 -22,16 -37,33 -12,12 -20,24 -35,38l-42 74c-5,11 -1,11 -12,15 0,3 0,8 0,10 -3,17 -8,8 -9,20 -1,4 0,5 -1,10 -2,9 -5,9 -6,23 -1,27 -6,10 -7,31 -1,13 -1,26 -1,40 0,18 -2,78 3,94 2,6 5,5 6,13 2,15 -4,26 9,32z"/>
    <path fill="#5F5F5F" d="M1274 4564c-2,-8 -1,-5 -5,-13l-47 -94c-5,-17 -7,-17 -8,-21 -7,-26 -4,-9 -7,-20 -2,-4 -1,-8 -3,-12 -4,-12 -2,6 -7,-22 -2,-13 -6,-8 -7,-20 -3,-26 0,-8 -6,-24 -3,-6 -2,-16 -3,-24 -3,-14 -6,-9 -7,-23 0,-9 0,-18 -2,-25 -2,-8 -5,-13 -6,-24 0,-10 2,-16 -4,-23 -2,-2 -46,-12 -59,-12 -15,0 -9,-5 -24,-7 -16,-2 -14,2 -28,-5 -10,-5 -20,-2 -29,-5 -8,-2 -8,-5 -26,-6 -21,-1 -11,-4 -27,-7 -10,-2 -21,0 -30,-5 -19,-9 -15,0 -28,-7 -15,-7 -12,-3 -28,-5 -11,-2 -3,-7 -27,-8 -15,-1 -5,-6 -25,-8 -19,-1 -10,-4 -24,-7 -29,-6 -13,-5 -25,-8 -6,-1 -11,0 -17,-2 -3,-1 -5,-3 -10,-5 -5,-2 -9,-1 -15,-3 -7,-2 0,-3 -13,-4 3,15 8,4 29,14 8,5 8,3 18,4 8,1 8,3 15,6 7,2 11,1 17,3 6,3 5,5 15,6 9,1 12,-1 19,3 18,12 1,0 30,11 14,5 14,-3 36,8 9,4 6,1 17,3 9,2 6,4 15,6 8,2 13,1 20,2 12,3 3,5 14,7 28,4 13,-6 27,6 7,6 23,2 32,4 9,2 8,6 16,7 9,2 16,-1 25,2 6,2 6,6 16,6 7,1 17,-1 23,1 7,1 9,6 16,7 11,1 9,-2 23,1 10,2 11,9 11,20 1,48 6,29 8,49 2,22 -2,17 6,37l1 5c1,3 1,3 1,7l13 45c5,11 0,12 7,23 7,11 1,13 6,20 2,3 4,1 6,8l8 21c2,8 1,6 5,12 4,7 1,2 4,10 2,9 2,4 5,10 3,5 1,6 3,11 3,6 2,-1 6,7l7 16c3,10 -2,2 6,15 1,2 1,2 3,5 2,6 -1,2 2,5 2,4 2,1 7,7 5,8 -1,6 9,9z"/>
    <path fill="#5F5F5F" d="M405 4232c-1,-10 -4,-9 -7,-20 -3,-11 -5,-8 -7,-15 -1,-5 0,-6 -2,-10 -2,-5 -3,-4 -4,-8 -4,-8 0,-10 -6,-18l-12 -35c-3,-20 -1,-6 -6,-17 -4,-7 0,-11 -5,-19 -6,-11 -3,-3 -6,-18 -1,-11 -5,-8 -6,-16 -2,-10 1,-10 -4,-20 -4,-7 -4,-8 -5,-19 0,-13 -2,-9 -6,-18 -3,-8 -1,-12 -2,-21 -2,-17 -9,-1 -8,-42 10,1 5,-1 15,7 1,1 1,1 2,1l3 3c20,16 12,10 36,23 16,8 6,6 23,15 1,0 1,0 2,0l70 37c6,2 4,1 9,4 6,4 5,2 11,5 7,3 4,2 9,5 5,2 7,1 12,3 7,2 3,2 9,5 5,3 7,1 12,3 5,3 3,3 9,5l32 13c12,8 6,-1 21,9 6,4 2,2 10,3 9,2 4,1 11,5 5,3 18,5 25,7 -1,-4 2,-6 -10,-8l-34 -13c-6,-3 -7,-2 -12,-4 -6,-2 -4,-2 -10,-5l-44 -18c-11,-2 -24,-12 -32,-14 -20,-5 -6,-2 -23,-9 -7,-3 -4,-3 -8,-5 -6,-3 -7,-2 -12,-4l-31 -17c-15,-9 -12,-4 -17,-8l-6 -4c0,0 -1,-1 -2,-2 -1,0 -4,-2 -5,-3l-6 -3c0,-1 -1,-1 -1,-1 -13,-8 -23,-16 -39,-25 -2,-1 -36,-32 -39,-18 0,0 0,1 -1,1 -1,11 0,-9 0,4 0,4 1,3 1,4 1,1 4,7 4,7 3,6 2,17 3,23 2,11 5,12 6,19 2,10 -1,13 4,23 5,10 3,6 5,19 2,11 5,11 7,19 2,11 -1,11 4,22 6,10 3,7 5,18 3,10 6,6 7,18 3,16 4,10 7,19 4,10 -1,10 6,20 5,9 2,10 5,18 2,4 4,5 5,9 1,4 1,6 2,10l15 36c2,8 0,8 8,13l3 2z"/>
    <path fill="#5F5F5F" d="M2115 4921c-11,0 -10,3 -17,5 -11,2 -15,-2 -29,4 -12,5 -10,4 -27,4 -28,1 -48,7 -79,8 -86,2 -80,-6 -121,-8 -37,-1 -15,-1 -36,-6 -16,-3 -21,0 -37,-6 -8,-3 -9,-2 -19,-4 -10,-1 -4,-2 -13,-6 -8,-2 -13,0 -20,-2 -6,-3 -2,-5 -15,-7l-64 -23c-4,-1 -7,-1 -9,-2l-49 -25c-10,-6 -17,-14 -30,-13 0,1 1,1 1,2 1,0 1,0 2,1 11,9 23,13 38,22 8,4 7,1 15,7 8,6 27,11 30,13 10,4 2,4 14,7l32 12c10,5 5,2 17,4 8,3 6,6 14,7 8,2 12,-1 20,3 9,5 1,5 15,5 13,1 9,1 17,5 15,7 11,-1 37,8 15,5 24,2 40,3 9,1 8,3 17,5 14,3 89,3 106,3 14,0 29,1 42,-1 13,-3 22,-7 37,-7 20,0 19,0 35,-7 9,-3 22,0 30,-4 8,-4 3,0 6,-7z"/>
    <path fill="#5F5F5F" d="M2995 4881c30,-10 176,-163 201,-192 6,-6 6,-10 10,-15 3,-4 8,-8 12,-12l9 -12c1,0 1,0 1,-1 7,-7 4,-7 11,-14l53 -69c3,-6 7,-9 10,-14 5,-6 4,-8 10,-16l38 -57c7,-13 7,-9 7,-17 -9,3 -10,12 -15,21l-14 21c-8,12 -10,17 -20,29 -8,8 -4,10 -20,29 -6,7 -6,6 -11,14 -7,12 -14,17 -20,27 -14,22 -17,19 -23,26 -4,6 1,1 -10,14 -11,13 -18,26 -33,41l-21 26c-8,9 -16,17 -24,25 -18,18 -32,33 -49,49 -22,22 -52,52 -76,72 -5,4 -8,5 -13,10 -12,11 -10,5 -13,15z"/>
    <path fill="#5F5F5F" d="M2101 3658l23 0c3,-6 4,-7 12,-7 17,-2 10,-2 16,-5 12,-5 7,4 23,-9 6,-4 12,-3 23,-8l7 -3c4,-2 2,-2 6,-4 6,-3 6,1 13,-5l10 -9c0,-1 1,-1 1,-1 5,-5 0,-2 7,-4 11,-2 49,-26 59,-33l78 -64c11,-10 7,-5 16,-18l2 -2c0,0 1,-1 2,-1l53 -67c5,-8 32,-37 31,-49 -7,2 -6,3 -14,15 -15,24 -16,29 -37,51 -8,9 -2,5 -9,13l-95 94c-1,1 -1,1 -2,1 -26,20 -26,21 -52,35 -4,2 0,0 -5,4 -15,11 -29,16 -39,24l-64 31c-7,4 -10,2 -16,4 -7,4 -5,5 -16,6 -17,2 -6,2 -17,7 -8,3 -11,-1 -16,4z"/>
    <path fill="#5F5F5F" d="M2244 3308c10,-2 26,-26 33,-36l24 -50c3,-5 2,-6 5,-11 2,-6 3,-3 5,-10 2,-8 -1,-7 4,-14 3,-5 4,-1 5,-9 2,-6 0,-8 2,-15 5,-15 4,5 6,-28 0,-11 8,-15 8,-55 0,-21 0,-43 0,-64 0,-41 -8,-38 -8,-57 -1,-17 -4,-13 -7,-25 -4,-14 5,-16 -11,-24 1,12 2,5 4,13 1,5 1,9 2,14 3,11 6,6 7,24 0,14 2,14 5,26 4,14 3,74 3,91 0,43 -8,34 -8,57 -1,20 -3,12 -7,24 -2,7 0,9 -1,15 -2,8 -3,4 -6,10 -2,5 -1,7 -3,13 -1,5 -3,6 -5,10 -2,5 -1,6 -4,12 -4,7 -1,0 -5,10 -4,11 -3,4 -6,9 -4,5 -1,6 -4,12 -2,3 -3,3 -7,10 -7,15 -6,10 -12,18 -5,6 -3,9 -12,19 -10,10 -7,6 -7,11z"/>
    <path fill="#5F5F5F" d="M1454 4772c-8,-16 -54,-45 -67,-62l-5 -6c0,0 -2,-2 -2,-2 -12,-12 -8,-10 -19,-22l-7 -8c0,-1 0,-1 -1,-1 0,-1 0,-1 0,-2l-51 -67c-4,-5 -16,-23 -21,-27 0,10 3,12 7,18 5,9 5,3 9,14 5,10 14,17 20,25 3,6 4,8 8,13 14,18 11,11 27,33 14,21 72,75 92,89 8,6 0,2 10,5z"/>
    <path fill="#5F5F5F" d="M1803 3423l-4 -2c-1,0 -1,-1 -2,-1 -8,-2 -4,1 -9,-2l-4 -4c-5,-5 -6,-2 -21,-9l-6 -2c-5,-1 -1,2 -6,-3 -9,-8 2,-2 -12,-6 -8,-3 -2,-2 -11,-7l-43 -28 -27 -28c-12,-11 -5,-1 -19,-18 -4,-5 1,-1 -5,-6 -3,-2 -4,-2 -7,-3 4,17 22,27 33,41 5,8 18,14 24,19 8,6 1,2 14,13 1,0 1,0 2,1 18,16 -9,-4 15,9l18 10c7,4 7,1 14,6l12 7c1,0 1,0 2,0l11 5c18,5 -3,7 31,8z"/>
    <path fill="#5F5F5F" d="M734 4743c-1,-6 -1,-5 -6,-10 -3,-3 -4,-4 -8,-8 -16,-17 -80,-91 -93,-110 -5,-7 -3,-7 -10,-8 0,6 21,32 26,38 12,15 19,19 29,34 7,10 20,23 30,33 5,6 10,12 15,17 8,9 11,15 17,14z"/>
    <path fill="#5F5F5F" d="M957 4939c-1,-4 1,-1 -3,-5 0,0 -4,-3 -4,-3l-27 -20c-6,-5 -11,-9 -18,-14l-76 -64c-6,-6 -4,-6 -13,-8l9 11c3,3 5,5 8,8 20,18 37,29 51,43 3,3 3,4 9,7 16,11 51,44 64,45z"/>
    <path fill="#5F5F5F" d="M1190 5083c0,-1 -1,-2 -1,-2l-13 -8c-3,-3 -5,-2 -8,-4 -7,-4 2,-2 -13,-8l-30 -15c-3,-2 -3,-3 -7,-5 -2,-2 -5,-2 -8,-4 -19,-10 -10,-8 -29,-18 -8,-4 -2,-2 -11,-3 5,9 12,11 29,21l66 36c21,10 7,9 25,10z"/>
    <path fill="#5F5F5F" d="M2421 4772c9,0 6,-3 16,-8l70 -65c7,-9 15,-16 16,-24l-9 6c-8,9 -21,27 -30,33l-9 9c-1,1 -2,3 -2,4l-41 33c-13,11 -9,2 -11,12z"/>
    <path fill="#5F5F5F" d="M1054 5007c-1,-8 -5,-7 -11,-11 -3,-2 -3,-1 -6,-4 -10,-5 -1,-2 -17,-12l-38 -25c-6,-5 -11,-14 -25,-16 2,4 -1,1 2,4l14 12c4,2 2,1 6,4l24 16c4,3 8,7 12,10 5,3 35,24 37,21 0,0 1,1 2,1z"/>
    <path fill="#5F5F5F" d="M2163 3381c8,-2 7,-2 15,-6 7,-3 6,-4 10,-9 7,-7 13,-10 21,-16l28 -29c4,-4 6,-8 7,-13 -7,0 -1,-3 -7,3l-30 32c-8,8 -14,11 -20,18 -19,18 -12,4 -21,15 -5,0 -1,-1 -3,5z"/>
    <path fill="#5F5F5F" d="M817 4825l-2 -7c-8,-4 -58,-55 -70,-67 -2,-3 -1,-2 -4,-5 -5,-4 -2,-2 -7,-3 1,12 58,61 70,73 8,8 4,6 13,9z"/>
    <path fill="#5F5F5F" d="M617 4607c2,-9 -7,-15 -11,-20l-34 -48c-4,-8 -3,-6 -10,-10 1,6 8,18 12,23 13,17 17,26 29,38 11,12 4,15 14,17z"/>
    <path fill="#5F5F5F" d="M2909 4946l6 1c1,0 1,0 1,-1l3 -3c5,-6 15,-11 20,-13 3,-3 2,-3 6,-5 5,-4 3,-3 8,-7 11,-10 18,-11 20,-19l-7 -1c-5,9 -20,18 -29,24 -5,4 -26,19 -28,24z"/>
    <path fill="#5F5F5F" d="M438 4313c0,-11 1,-12 -5,-18 -5,-6 -3,-6 -4,-16 -4,-7 0,3 -4,-5 -2,-3 -6,-15 -14,-23 -2,15 1,10 5,18l13 30c4,6 0,-1 4,6l3 6c1,0 1,1 2,2z"/>
    <path fill="#5F5F5F" d="M2309 2897c-2,-12 -3,-3 -5,-14l-12 -27c-11,-12 1,-14 -13,-15 2,8 -1,-1 2,4l5 13c5,9 4,1 7,16l5 3c1,4 1,9 2,13 2,6 0,2 2,4 4,4 0,2 7,3z"/>
    <path fill="#5F5F5F" d="M2391 4795c7,0 14,-5 19,-9 3,-2 2,-2 6,-5 6,-5 4,-2 5,-9 -7,1 -2,0 -9,5 -3,2 -4,3 -7,5 -7,5 -9,6 -14,13z"/>
    <path fill="#5F5F5F" d="M3037 2359c-2,-4 -2,-4 -5,-7 0,0 0,-1 -1,-1 -9,-12 -11,-9 -19,-17l-32 -23 6 5c3,2 5,4 8,6 5,6 10,8 15,13l28 24z"/>
    <path fill="#5F5F5F" d="M2973 4899l6 0c3,-4 5,-4 9,-9l4 -3c2,-3 4,3 4,-7l-8 1c-4,6 -7,9 -15,12l0 6z"/>
   </g>
   <g>
    <path fill="#010000" d="M640 4089c5,5 4,-3 20,7 9,5 13,2 22,7 14,8 12,2 23,7 9,4 6,6 22,5 13,1 6,2 13,4 6,2 10,1 15,3 5,2 7,4 10,5 6,2 11,1 17,2 12,3 -4,2 25,8 14,3 5,6 24,7 20,2 10,7 25,8 24,1 16,6 27,8 16,2 13,-2 28,5 13,7 9,-2 28,7 9,5 20,3 30,5 16,3 6,6 27,7 18,1 18,4 26,6 9,3 19,0 29,5 14,7 12,3 28,5 15,2 9,7 24,7 13,0 57,10 59,12 6,7 4,13 4,23 1,11 4,16 6,24 2,7 2,16 2,25 1,14 4,9 7,23 1,8 0,18 3,24 6,16 3,-2 6,24 1,12 5,7 7,20 5,28 3,10 7,22 2,4 1,8 3,12 3,11 0,-6 7,20 1,4 3,4 8,21l47 94c4,8 3,5 5,13 0,7 4,7 7,11 5,4 17,22 21,27l51 67c0,1 0,1 0,2 1,0 1,0 1,1l7 8c11,12 7,10 19,22 0,0 2,2 2,2l5 6c13,17 59,46 67,62 2,7 17,14 22,17 5,2 7,7 11,10 2,2 9,8 12,10 5,3 7,3 13,7 2,2 10,9 11,10 3,2 3,1 7,2 6,3 12,11 20,12 13,-1 20,7 30,13l49 25c2,1 5,1 9,2l64 23c13,2 9,4 15,7 7,2 12,0 20,2 9,4 3,5 13,6 10,2 11,1 19,4 16,6 21,3 37,6 21,5 -1,5 36,6 41,2 35,10 121,8 31,-1 51,-7 79,-8 17,0 15,1 27,-4 14,-6 18,-2 29,-4 7,-2 6,-5 17,-5 35,-1 19,-6 39,-8 18,-2 8,-5 18,-7 3,-1 6,-1 10,-2l30 -10c5,-3 0,-2 7,-4 11,-3 14,-3 28,-11 3,-1 6,-3 8,-4 5,-2 6,-1 11,-3l64 -37c4,-2 0,0 4,-2l28 -18c9,-8 5,-3 16,-9 6,-3 9,-8 13,-11 5,-7 7,-8 14,-13 3,-2 4,-3 7,-5 7,-5 2,-4 9,-5 2,-10 -2,-1 11,-12l41 -33c0,-1 1,-3 2,-4l9 -9c9,-6 22,-24 30,-33l9 -6 0 -1c2,-10 11,-17 17,-24 7,-8 10,-16 17,-24 2,-2 8,-9 9,-10l53 -88c12,-20 29,-62 33,-69l11 -29c0,-2 1,-7 1,-9 4,-11 -3,4 3,-4 0,-1 1,-1 1,-1l4 -12c1,-2 2,-2 2,-3 6,-9 4,-21 9,-30 4,-8 2,-9 4,-19 1,-9 3,-8 5,-13 2,-6 1,-12 2,-18 2,-15 7,-15 8,-34 0,-14 3,-23 6,-35 4,-14 -3,-27 8,-35 9,-4 15,0 27,-6 12,-5 22,-2 33,-4 7,-2 8,-6 26,-7 20,-2 16,-5 31,-7 16,-3 16,0 29,-6 9,-4 22,-1 30,-5 5,-2 3,-4 12,-5 5,-1 12,-1 18,-1 13,-1 11,-7 29,-8 18,-1 10,-6 27,-8 20,-1 16,-6 28,-7 34,-5 10,-1 28,-7 6,-2 10,-1 16,-2 9,-2 4,-4 13,-6 6,-2 11,-1 17,-2 7,-2 3,-3 12,-6 5,-1 9,-1 15,-2 7,-1 8,-4 14,-6 5,-2 9,-1 15,-3 8,-2 4,-3 11,-5 7,-2 9,-1 15,-3 6,-3 4,-5 14,-6 13,-2 29,-9 39,-14 7,-3 9,-1 15,-3 4,-2 4,-4 11,-6 20,-5 15,-6 27,-9l78 -31c15,-5 21,-12 39,-16l106 -56c5,-3 0,0 4,-3l16 -11c4,-3 8,-6 12,-8 11,-6 35,-31 44,-22 7,8 -6,17 -6,36 0,14 -2,12 -6,23l-2 16c-2,12 -4,9 -7,16 -2,9 1,11 -3,20 -5,9 -5,5 -6,17 -1,15 -2,9 -6,18 -3,7 -1,12 -4,19 -5,11 -3,2 -6,18l-24 70c-2,11 -5,8 -7,17 -1,3 -1,7 -2,10 -3,8 0,0 -4,6 -3,5 -3,9 -7,17 -6,10 -8,24 -13,34l-75 149c-6,9 -22,43 -28,48 -4,4 4,2 -4,2 0,8 0,4 -7,17l-38 57c-6,8 -5,10 -10,16 -3,5 -7,8 -10,14l-53 69c-7,7 -4,7 -11,14 0,1 0,1 -1,1l-9 12c-4,4 -9,8 -12,12 -4,5 -4,9 -10,15 -25,29 -171,182 -201,192l1 -1c0,10 -2,4 -4,7l-4 3c-4,5 -6,5 -9,9l-6 0c-2,8 -9,9 -20,19 -5,4 -3,3 -8,7 -4,2 -3,2 -6,5 -5,2 -15,7 -20,13l-3 3c0,1 0,1 -1,1l-6 -1c-1,9 0,4 -17,17 -15,11 -13,8 -30,22 -5,4 -4,1 -11,6 -8,4 -11,9 -21,14 -4,2 -6,3 -10,6l-154 86c-8,3 -5,2 -13,6l-23 10c-9,4 -4,2 -11,6 -7,4 -7,2 -13,5l-24 11c-5,3 -8,2 -13,5 -6,2 -4,3 -12,5 -16,4 -28,11 -37,15 -5,2 -8,1 -14,3 -5,2 -3,4 -10,6 -9,2 -7,-1 -14,3l-39 13c-16,3 2,5 -27,8 -11,1 -5,1 -12,5l-55 14c-13,8 -13,2 -27,6 -14,4 6,4 -28,7 -12,1 -11,7 -25,8 -24,1 -9,-3 -30,5 -9,4 -20,2 -31,3 -13,0 -16,5 -29,7 -10,1 -22,0 -33,1 -13,1 -19,5 -32,6 -20,2 -44,0 -64,4 -44,6 -159,10 -198,3 -42,-7 -77,-4 -95,-7 -13,-2 -14,-6 -29,-6 -12,-1 -21,0 -31,-3 -30,-9 -30,-3 -47,-6 -2,-1 -4,-1 -6,-2 -31,-11 -22,-2 -38,-7 -12,-3 -8,-5 -27,-6 -17,-1 -16,-6 -27,-8 -34,-5 -14,-3 -27,-7 -13,-4 -14,2 -29,-6 -3,-2 -66,-16 -80,-24 -10,-5 0,1 -13,-4 -7,-2 -5,-3 -11,-5 -5,-2 -8,-1 -13,-3 -8,-2 -5,-3 -12,-6 -8,-2 -7,0 -14,-4 -8,-4 -3,-2 -12,-5 -13,-4 -3,-4 -15,-7l-11 -4c-17,-12 1,4 -22,-9 -5,-3 -6,-2 -12,-4 -12,-6 7,-1 -17,-8l-7 -4c-8,-5 -1,-1 -12,-4l-48 -26c-3,-1 -5,-4 -7,-4 -18,-1 -4,0 -25,-10l-66 -36c-17,-10 -24,-12 -29,-21 -3,-5 -9,-8 -16,-9 -1,0 -2,-1 -2,-1 -2,3 -32,-18 -37,-21 -4,-3 -8,-7 -12,-10l-24 -16c-4,-3 -2,-2 -6,-4l-14 -12c-3,-3 0,0 -2,-4 -13,-1 -48,-34 -64,-45 -6,-3 -6,-4 -9,-7 -14,-14 -31,-25 -51,-43 -3,-3 -5,-5 -8,-8l-9 -11 1 0c-9,-3 -5,-1 -13,-9 -12,-12 -69,-61 -70,-73 -6,1 -9,-5 -17,-14 -5,-5 -10,-11 -15,-17 -10,-10 -23,-23 -30,-33 -10,-15 -17,-19 -29,-34 -5,-6 -26,-32 -26,-38 -10,-2 -3,-5 -14,-17 -12,-12 -16,-21 -29,-38 -4,-5 -11,-17 -12,-23l-41 -65c-3,-5 -4,-10 -7,-15 -12,-16 -3,-4 -8,-14l-17 -25c-6,-9 -3,-8 -6,-15l-5 -7c-1,0 -1,-1 -1,-1 -7,-18 -6,-9 -9,-21 -3,-12 -8,-7 -15,-28 -5,-13 -3,-5 -7,-14 -7,-14 -5,-7 -8,-11 -1,-1 -1,-2 -2,-2l-3 -6c-4,-7 0,0 -4,-6l-13 -30c-4,-8 -7,-3 -5,-18 1,-10 0,-3 -3,-9 -2,-4 0,1 -2,-6 0,0 -1,-4 -1,-4l-3 -2c-8,-5 -6,-5 -8,-13l-15 -36c-1,-4 -1,-6 -2,-10 -1,-4 -3,-5 -5,-9 -3,-8 0,-9 -5,-18 -7,-10 -2,-10 -6,-20 -3,-9 -4,-3 -7,-19 -1,-12 -4,-8 -7,-18 -2,-11 1,-8 -5,-18 -5,-11 -2,-11 -4,-22 -2,-8 -5,-8 -7,-19 -2,-13 0,-9 -5,-19 -5,-10 -2,-13 -4,-23 -1,-7 -4,-8 -6,-19 -1,-6 0,-17 -3,-23 0,0 -3,-6 -4,-7 0,-1 -1,0 -1,-4 0,-13 -1,7 0,-4 1,0 1,-1 1,-1 3,-14 37,17 39,18 16,9 26,17 39,25 0,0 1,0 1,1l6 3c1,1 4,3 5,3 1,1 2,2 2,2l6 4c5,4 2,-1 17,8l31 17c5,2 6,1 12,4 4,2 1,2 8,5 17,7 3,4 23,9 8,2 21,12 32,14l44 18c6,3 4,3 10,5 5,2 6,1 12,4l34 13c12,2 9,4 10,8zm119 -849c21,0 13,-1 25,-6 6,-2 9,0 14,-2 1,0 7,-5 9,-6 10,-5 13,1 24,-5 11,-7 17,-2 25,-7 6,-4 -1,-3 8,-5 10,-2 17,0 26,-5l14 -4c5,0 9,0 13,-2 4,-1 3,-3 10,-5 13,-3 13,1 26,-5 0,0 -1,0 4,-2 6,-2 16,0 22,-2 4,-2 4,-6 11,-8l11 0c13,-1 13,-5 23,-7 9,-2 20,0 29,-3 18,-6 -1,-2 24,-5 13,-2 14,-6 21,-9 9,-3 15,-1 27,-5 14,-5 25,-3 28,0 3,5 1,1 2,8 1,15 0,14 6,29 3,9 1,12 2,21 1,8 5,10 7,17 1,7 0,13 1,20 2,10 5,8 9,26 2,12 0,2 3,9 4,8 2,12 4,19 3,11 5,5 7,16 1,5 -1,4 2,9 2,5 3,4 4,7 4,7 2,9 8,22l19 44c3,6 1,0 5,6 3,5 1,3 4,8l20 37c8,14 16,31 26,42 6,7 9,15 14,22 4,6 6,6 11,13l30 38c10,9 12,18 21,26l46 48c3,3 8,6 12,9l39 32c2,2 5,4 5,4 4,2 4,2 9,4 14,8 26,22 41,29 10,5 18,13 27,18l46 24c10,7 28,13 40,20 6,3 2,0 9,2 11,4 2,5 14,8l35 12c11,6 7,1 19,4 9,2 5,5 15,7l35 8c7,0 16,-2 22,2 8,4 0,6 15,6 7,0 16,-1 23,0 16,4 -1,8 40,8 42,-1 37,8 86,8 16,0 29,-1 43,-3 8,-1 13,-3 18,-4 8,-2 16,-1 23,-1 7,0 15,0 22,0 14,0 10,-3 17,-6 12,-6 29,3 42,-6 13,-9 21,0 37,-8 14,-6 15,1 37,-10 7,-3 11,-1 19,-4 3,-2 4,-3 7,-4 5,-2 7,-1 11,-2 9,-3 -1,-5 16,-7l47 -22c12,-6 16,-6 32,-15l13 -8c9,-6 14,-5 30,-17 13,-10 30,-16 43,-26 18,-13 -1,-3 28,-19 9,-6 13,-17 24,-23 13,-8 4,1 14,-9l24 -21c30,-34 71,-77 94,-114l10 -14c8,-18 30,-40 37,-57l18 -38c3,-5 3,-2 5,-7 3,-6 1,-4 3,-9l13 -23c4,-7 1,-11 4,-17l7 -16c3,-10 4,-7 7,-17 2,-12 4,-8 7,-17 3,-11 -2,-7 5,-16 5,-8 4,-8 5,-18 1,-16 2,-9 6,-18 3,-6 1,-14 2,-21 2,-10 5,-7 7,-17 1,-6 0,-16 1,-23 1,-12 6,-14 7,-27 0,-3 0,-2 1,-6 3,-11 22,-6 29,-2 14,6 13,3 28,5 15,2 9,7 27,7 17,0 16,2 29,6 10,3 22,0 30,4 4,2 4,4 9,6 5,2 10,0 16,1 12,2 7,7 25,8 22,0 12,5 30,6 15,1 14,5 25,8 12,4 15,-1 28,6 5,2 -2,0 6,2 10,2 12,0 19,6 9,7 17,0 29,6 5,3 -2,1 5,3 4,1 3,1 7,1 13,1 12,7 24,9 15,2 10,6 25,8 13,1 6,0 14,4 10,6 16,1 28,8 6,3 13,2 19,5l12 5c4,1 1,0 6,2 7,3 5,4 12,6 7,1 7,-1 13,3 1,1 1,1 1,1l58 25c6,3 5,2 12,4 4,1 3,1 5,2l7 4c9,4 2,-1 9,5 8,7 4,2 13,5 7,3 2,2 10,7l35 17c5,3 1,3 9,6 3,2 2,1 5,3 6,4 1,1 6,4 7,5 23,11 33,18 5,4 5,5 10,7l79 59c16,15 39,35 49,52l7 10c8,9 14,20 18,32l15 51c0,13 4,37 -1,49 -3,6 -5,4 -7,11 -1,5 0,9 -1,14 -3,8 -4,3 -7,11 -3,7 0,4 -4,11 -4,7 -3,5 -6,12 -2,4 -12,15 -16,19 -11,14 -16,26 -30,39 -15,13 -28,28 -45,38 -5,3 -7,5 -11,8l-52 38c-6,6 -35,20 -39,22 -6,4 0,3 -9,7l-57 28c-10,6 -23,8 -35,17 -5,4 -11,2 -17,6 -6,3 0,1 -6,3 -7,3 -6,0 -14,4 -7,4 -1,2 -12,5 -12,4 -2,1 -10,6 -8,4 -8,1 -15,4 -7,3 0,4 -10,6 -9,1 -8,-2 -16,2 -23,12 -8,-2 -24,10 -14,9 -15,-5 -24,10 -19,2 -12,0 -26,7 -5,2 -12,2 -18,2 -6,7 -5,8 -16,9 -19,1 -7,5 -21,6 -15,2 -9,-3 -20,5 -8,5 -16,3 -25,4 -9,12 -10,6 -26,7 -10,1 -5,3 -11,6 -6,4 -8,1 -16,2 -12,1 -5,8 -26,8 -24,0 -10,7 -27,8 -5,0 -11,-1 -16,0 -9,1 -4,3 -10,6 -11,5 -22,-3 -31,4 -7,5 -2,5 -13,6 -6,0 -13,-1 -18,-1 -12,2 -2,9 -28,8 -21,0 -14,4 -25,7 -11,4 -24,-2 -33,3 -13,6 -3,8 -26,7 -24,-1 -14,4 -28,7 -10,3 -23,-2 -31,2 -7,4 -1,5 -12,7 -24,4 -10,1 -33,19 -4,3 -5,5 -9,9l-2 2c0,0 0,1 -1,1 0,0 -1,1 -1,1 -1,1 -4,2 -5,3 0,7 2,10 -2,17 -3,7 -4,0 -4,12 -2,23 0,47 0,71 0,19 -5,16 -8,28 -2,11 2,23 -1,34 -5,18 -6,0 -7,28 -1,21 -6,-2 -8,27 0,11 -1,7 -5,14 -3,7 -2,9 -2,17 -7,6 -6,0 -7,10 -2,13 2,7 -5,16 -4,5 -4,14 -8,20 -3,4 2,-4 -2,3 -9,16 -15,35 -24,51l-9 20c-3,4 -4,2 -7,7l-5 10c-1,1 -4,4 -5,5 -15,14 -9,15 -26,33 -12,13 -21,30 -34,42 -20,19 -38,41 -60,57 -9,7 -15,10 -22,17 -14,14 -31,23 -47,32 -11,7 -6,6 -18,11 -5,2 -2,1 -6,5 -7,6 -32,16 -43,23 -8,6 -31,11 -35,14 -4,3 3,1 -6,4 -4,1 -4,0 -9,1 -11,2 -6,4 -12,7 -9,3 -8,-2 -16,4 -7,4 -1,5 -15,5 -25,0 -5,8 -31,8 -23,-1 -10,8 -31,8 -7,0 -14,-1 -20,-1 -7,1 -8,3 -14,6 -9,4 -134,3 -155,2 -17,0 -17,-7 -31,-8 -6,0 -13,1 -20,1 -12,-1 -8,-4 -14,-6 -7,-3 -12,-1 -19,-1 -12,-1 -7,-3 -13,-6 -8,-5 -9,-1 -18,-3 -9,-1 -4,-2 -10,-8 -15,-1 -11,2 -21,-5 -4,-3 -13,-3 -19,-7 -6,-4 -11,-3 -18,-7 -9,-6 3,-1 -9,-5l-27 -12c-8,-5 -18,-8 -25,-13 -6,-4 -2,-4 -8,-7 -6,-2 -2,2 -9,-4l-25 -15c-8,-9 -3,-6 -16,-11 -8,-3 -21,-19 -29,-24 -4,-3 -11,-7 -15,-10 -4,-4 -9,-9 -14,-14 -9,-9 -18,-18 -26,-27 -9,-9 -18,-16 -25,-25 -2,-2 -5,-6 -6,-7l-17 -23c-7,-8 -6,-6 -10,-16 -4,-7 -9,-9 -13,-14 -4,-6 -5,-12 -8,-18l-8 -12c-2,-7 -6,-9 -10,-16l-21 -38c-10,-18 -7,-20 -10,-30 -3,-8 -2,0 -6,-8 -2,-5 -1,-6 -2,-11 -3,-8 -7,-6 -8,-17 -1,-3 0,-3 -1,-6 -2,-8 1,1 -3,-5 -4,-7 -3,-15 -3,-25 -17,-12 -5,-10 -9,-29 -2,-5 -5,-7 -7,-13 -2,-6 -1,-13 -1,-20 0,-20 -7,-14 -8,-33 -1,-24 4,-61 0,-83 -1,-6 -5,-7 -7,-12 -4,-15 3,-7 -9,-22 -6,-9 -17,-19 -26,-25 -8,-6 -9,-1 -18,-4 -7,-3 -3,-6 -12,-7 -6,-1 -16,0 -22,0 -22,-1 -9,-9 -33,-8 -25,1 -19,-5 -34,-8 -6,-1 -13,1 -19,0 -12,0 -8,-2 -16,-6 -12,-6 -22,4 -35,-6 -5,-5 -3,-5 -14,-5 -7,0 -14,2 -21,-1 -8,-3 -3,-5 -14,-5 -7,-1 -14,1 -20,-2 -6,-2 -3,-5 -13,-6 -7,-1 -14,1 -21,-2 -8,-3 0,-5 -12,-6 -8,-1 -12,2 -19,-2 -7,-4 -1,-6 -11,-7 -8,-1 -14,2 -21,-1 -6,-3 -3,-6 -12,-7 -11,-1 -11,2 -20,-3 -9,-4 -3,-3 -16,-4 -15,0 -7,0 -16,-5 -7,-4 -8,-2 -17,-3 -14,-1 -4,-4 -14,-7 -9,-2 -8,2 -16,-3 -17,-12 -13,1 -31,-10 -5,-3 -12,-2 -18,-4 -8,-3 0,-5 -13,-7 -5,-1 -3,1 -8,-1 -8,-3 0,-1 -7,-5 -8,-4 -9,0 -17,-3 -10,-4 0,-4 -15,-7 -13,-2 -6,-3 -13,-6 -9,-4 -8,1 -17,-4 -10,-7 -1,-2 -14,-6 -11,-3 -5,-5 -14,-8l-45 -16c-2,-1 -16,-11 -33,-17 -7,-3 -3,-2 -8,-4 -7,-3 -9,-2 -13,-6l-54 -29c-3,-2 -3,-2 -6,-4 -18,-10 -19,-17 -28,-22l-28 -14 -66 -57c-7,-8 -13,-14 -20,-21 -7,-7 -10,-18 -16,-25l-12 -18c-2,-5 -2,-3 -5,-7 -3,-6 -1,-8 -5,-14 -6,-9 -4,-3 -6,-15 -2,-16 -8,-11 -7,-34 0,-27 -4,-30 5,-54 4,-10 2,-16 8,-24 7,-10 10,-23 18,-33 9,-11 11,-16 17,-24 1,-2 8,-9 10,-11 16,-18 62,-61 88,-75l26 -15c3,-2 6,-6 11,-9l32 -18c5,-3 5,-2 10,-3 9,-4 15,-11 25,-15 3,-2 5,-2 7,-3 13,-7 8,-2 21,-11l27 -11c9,-3 -2,-3 11,-7l16 -7c7,-2 8,0 15,-4l7 -3c8,-3 7,-5 14,-8 4,-2 3,-1 8,-1l46 -17c9,-3 1,-4 14,-6 12,-2 6,1 17,-4 14,-7 20,4 28,-12zm1724 129c1,12 -26,41 -31,49l-53 67c-1,0 -2,1 -2,1l-2 2c-9,13 -5,8 -16,18l-78 64c-10,7 -48,31 -59,33 -7,2 -2,-1 -7,4 0,0 -1,0 -1,1l-10 9c-7,6 -7,2 -13,5 -4,2 -2,2 -6,4l-7 3c-11,5 -17,4 -23,8 -16,13 -11,4 -23,9 -6,3 1,3 -16,5 -8,0 -9,1 -12,7l-23 0c-10,1 0,2 -11,5 -13,5 -2,-3 -31,7 -20,6 -18,-2 -48,8 -14,5 -136,4 -144,2 -10,-3 -11,-6 -33,-6 -28,-1 -15,-5 -30,-8 -5,-1 -11,0 -16,-1 -12,-1 -8,-3 -14,-6 -5,-2 -9,-1 -16,-2 -9,-1 -8,-3 -13,-5 -5,-2 -10,-2 -15,-4 -7,-2 -3,-3 -14,-5l-12 -6c-6,-3 -9,-2 -15,-4 -8,-4 1,-3 -11,-6l-61 -33c-6,-2 -9,-4 -14,-6l-12 -8c-8,-5 -15,-9 -22,-15l-81 -68c-12,-13 -24,-26 -35,-40 -11,-13 -18,-17 -25,-29 -3,-7 -33,-47 -44,-68l-13 -24c-4,-7 -3,-7 -6,-13l-17 -35c0,0 -2,-3 -2,-3 -4,-5 -2,-9 -4,-16 -3,-8 -3,-3 -6,-12 -3,-9 1,-5 -5,-14 -6,-9 -3,-21 -7,-31 -6,-15 -3,-17 -6,-31 -4,-11 -6,1 -7,-30 -1,-30 -7,-21 -8,-67 -1,-25 -1,-51 0,-76 1,-26 7,-42 8,-67 1,-18 5,-18 7,-29 1,-6 1,-12 2,-18 1,-10 3,-5 5,-13 2,-5 1,-9 3,-15 2,-9 4,-7 6,-14 1,-5 1,-10 3,-15 3,-9 2,1 6,-13 4,-16 20,-44 23,-53l71 -115c23,-24 56,-69 82,-86l32 -26c15,-13 48,-33 66,-45l89 -43c7,-4 8,-2 15,-4 5,-2 8,-5 12,-6 6,-2 9,0 16,-4 20,-11 13,-1 28,-8 13,-7 19,-3 31,-7 31,-9 29,-4 64,-11 25,-5 120,-4 144,2 11,4 22,2 33,4 11,2 18,6 30,7 11,1 51,15 59,16 10,2 6,2 13,6 5,3 10,1 15,6 8,0 21,7 25,9l22 10c5,2 4,1 8,4l49 27c1,0 3,2 4,2l2 2c1,0 1,1 1,1 3,2 2,2 5,4 26,13 42,28 65,47 16,13 14,7 35,30 26,28 60,65 81,96 3,4 5,11 8,15 17,21 24,40 33,55l21 44c2,6 0,3 3,9 9,18 9,23 14,40 2,6 5,9 7,15 3,12 -3,0 5,18 2,4 3,13 3,19 1,16 7,22 8,35 2,31 8,48 8,81 0,26 2,61 -1,87 -2,13 -6,26 -7,38 -2,33 -2,16 -7,35 -3,11 0,14 -5,25 -4,7 -3,2 -4,11l-3 16c0,0 0,1 0,1l-5 9c-3,17 -1,6 -5,16 -4,10 3,3 -9,25 -2,6 -2,10 -5,16l-7 16c-6,12 0,-6 -7,14l-25 40zm497 -1058l32 23c8,8 10,5 19,17 1,0 1,1 1,1 3,3 3,3 5,7 9,4 11,10 18,17 4,5 5,4 10,8 16,12 62,62 76,77l41 44c10,15 13,13 23,27 9,12 18,17 25,28 4,7 3,3 8,8 4,5 3,6 6,11l17 19c5,6 2,1 6,9 4,10 9,11 15,19 8,10 8,14 13,20l41 62c4,6 0,1 4,6l22 37c4,6 4,3 8,10 11,19 -1,9 16,33 5,7 3,2 6,12l25 43c3,8 2,5 5,10 8,14 13,38 22,48 7,9 1,1 5,12l25 51c0,1 1,2 1,3l7 15c4,11 3,1 6,8 1,12 -1,12 4,21l11 34c2,14 3,7 6,15 3,6 1,5 3,10 3,12 4,1 8,24 2,11 4,5 7,17 6,26 8,18 9,36 1,14 1,8 6,16 3,7 1,12 2,21 2,11 5,6 7,15 2,9 -1,10 3,20 3,6 4,8 5,16 2,24 7,29 6,36 -8,0 -8,-2 -14,-5 -6,-5 -7,-5 -12,-10 -7,-6 -5,-4 -14,-8l-44 -28c-4,-3 -3,-2 -6,-4 -9,-6 -8,-9 -24,-16l-55 -28c-12,-8 -32,-11 -43,-15l-3 -1c-9,-3 -7,0 -15,-5 -1,-1 -2,-2 -3,-2 0,0 -1,0 -1,-1 0,0 -3,-1 -4,-2l-14 -7c-4,-1 -4,0 -8,-2l-28 -13c-7,-2 -9,0 -16,-4 -13,-7 -35,-12 -45,-18 -8,-5 -6,-1 -15,-4 -8,-2 -6,-5 -15,-6l-33 -9c-7,-1 -7,-4 -13,-6 -7,-3 -11,0 -18,-4 -8,-4 -1,-4 -14,-5 -12,-1 -22,-5 -34,-10 -8,-2 -7,-5 -14,-7 -7,-1 -11,1 -18,-2 -9,-3 -3,-4 -15,-6 -7,-1 -10,0 -16,-3 -17,-6 -23,-4 -34,-8 -9,-4 -25,-3 -34,-7 -14,-7 -23,-2 -34,-7 -10,-4 -3,-4 -17,-5 -7,-1 -11,-1 -17,-2 -11,-3 -3,-5 -16,-6 -6,-1 -13,0 -19,-1 -4,-1 -7,-5 -15,-6 -16,-3 -17,-2 -36,-7 -7,-3 -10,-2 -19,-2 -16,0 -17,-6 -33,-8 -27,-3 -15,-41 -21,-59 -5,-14 -2,-25 -5,-37 -4,-15 -5,-4 -8,-32 -1,-9 -4,-9 -6,-16 -2,-5 -1,-11 -3,-17 -2,-9 -5,-4 -7,-14 0,-4 1,-7 -1,-12 -2,-7 0,-1 -3,-6 -6,-9 -1,-7 -5,-17 -5,-11 -4,2 -6,-12 -2,-10 -14,-37 -19,-45l-37 -77c-3,-4 -2,-2 -4,-5 -7,-10 -10,-17 -16,-25 -3,-4 -6,-8 -8,-12 -4,-8 -2,-7 -8,-13l-8 -8c-8,-9 -11,-18 -20,-27 -15,-14 -24,-30 -38,-44l-42 -42c-14,-14 -28,-21 -43,-38 -5,-6 -5,-5 -12,-9 -17,-8 -50,-37 -76,-50l-94 -49c-8,-2 -1,2 -8,-4l-18 -8c-8,-4 -12,-2 -20,-5 -7,-2 -5,-5 -14,-6 -14,-2 -7,0 -17,-6 -9,-5 -8,0 -16,-4 -13,-5 1,-5 -14,-6 -41,-3 -16,-4 -34,-7 -6,-2 -13,-1 -19,-1 -8,-2 -9,-4 -16,-6 -18,-4 -40,-1 -57,-4 -47,-8 -110,-8 -156,1 -11,2 -26,1 -39,2 -13,2 -16,7 -34,8 -8,0 -11,1 -17,5l-48 12c-14,1 -6,2 -16,6 0,0 -19,3 -36,10 -1,1 -1,1 -2,1l-43 18c-4,2 1,0 -3,2l-35 16c-12,5 -17,10 -27,14 -11,3 -6,-1 -14,6 -7,6 -7,3 -14,7 -1,1 -2,2 -3,2l-3 3c-2,1 -4,2 -6,3 -7,5 -7,3 -13,8l-49 34c-13,10 -19,20 -33,30l-23 18c-14,15 -28,26 -41,42 -3,4 -7,7 -10,10 -4,6 -3,6 -8,12 -7,8 -12,13 -19,22l-52 74c-3,4 -7,8 -9,12 -2,3 -2,3 -3,7 -4,6 -2,1 -4,5l-9 14c-5,8 -8,20 -12,29l-38 85c-2,10 -2,6 -5,15 -2,8 0,13 -2,20 -1,2 -2,3 -4,6 -4,6 -2,16 -6,24 -5,9 -4,6 -5,18 -1,19 -7,16 -8,33 -1,17 -3,21 -6,34 -3,12 1,28 -2,40 -4,15 -13,13 -25,15 -14,3 -16,6 -35,7 -14,1 -18,7 -33,8 -7,0 -13,-1 -20,2 -24,9 -15,3 -34,7 -9,2 -6,3 -15,5 -8,2 -14,1 -21,2 -7,2 -6,4 -13,6 -13,4 -18,-1 -35,6 -9,5 -8,2 -18,4 -8,2 -6,4 -14,6 -10,3 -16,0 -24,6 -1,1 -1,1 -1,1 -8,6 -16,2 -25,5 -5,1 -10,5 -14,5 -9,2 -10,0 -18,4 -9,4 -2,4 -14,5 -19,2 -4,4 -34,8 -11,1 -8,5 -14,7 -9,3 -8,-1 -18,4 -9,4 -7,2 -16,5 -7,2 -8,5 -13,6 -8,3 -11,0 -19,4 -9,4 -3,3 -14,5l-8 4c-8,5 -14,3 -22,7 -11,6 -3,3 -16,5 -10,2 -7,4 -14,6 -4,2 -5,1 -9,3 -9,3 -3,1 -7,3 -7,5 -7,2 -14,5 -8,3 -20,11 -28,14l-45 18c-11,4 -3,3 -13,6 -14,3 -11,5 -21,10l-3 1c-18,11 -6,2 -19,8 -3,2 -3,2 -7,4l-59 33c-8,4 -21,10 -28,18 -5,6 -14,10 -22,16l-8 7c-3,2 -5,4 -9,4 -14,1 -8,-8 -5,-15 4,-7 3,-7 4,-17 0,-18 6,-13 7,-31 1,-7 0,-12 3,-17 4,-9 4,0 5,-15 2,-20 7,-15 8,-31 2,-22 3,1 8,-31 2,-9 3,-6 6,-13 2,-7 1,-11 3,-17 3,-8 5,-5 6,-14 4,-19 5,-9 10,-29 2,-10 4,-5 6,-13 4,-9 0,-5 5,-14 6,-9 2,-6 5,-15 2,-6 4,-4 7,-13l10 -29c3,-7 2,2 6,-10 1,-3 0,-4 2,-8l6 -13c2,-7 0,-2 3,-7 7,-9 2,-6 6,-14 3,-6 4,-2 7,-11l12 -28c5,-9 6,-19 12,-28l22 -37c2,-4 1,-2 3,-6 2,-5 1,-3 3,-6 3,-4 5,-9 7,-13 12,-21 22,-43 36,-62 6,-8 9,-16 15,-24l33 -47c3,-4 4,-5 8,-11l33 -45c3,-3 7,-7 10,-10 4,-5 3,-7 7,-12 15,-19 30,-35 43,-55 7,-10 22,-23 31,-34l48 -44c3,-4 3,-6 8,-11 19,-20 60,-61 81,-76l8 -6c1,-1 1,-1 1,-1 8,-7 14,-12 21,-18 9,-7 11,-11 21,-18 21,-15 43,-35 65,-49l24 -19c9,-6 22,-11 30,-19l34 -23c0,0 1,0 1,-1 4,-2 1,-1 7,-3l136 -79c2,-1 4,-1 7,-2l17 -9c0,0 22,-11 30,-13 12,-2 6,-2 15,-6l26 -12c10,-6 0,-3 14,-5 15,-3 3,-2 13,-7 8,-3 7,1 15,-4 10,-7 2,-2 15,-6 8,-2 5,-4 13,-6 11,-3 5,1 14,-5 9,-6 5,-2 16,-4 15,-3 26,-14 42,-17 12,-1 6,0 15,-5 7,-4 7,-1 15,-3 8,-2 9,-4 15,-6 6,-2 10,-1 16,-3 5,-2 5,-4 14,-6 4,0 17,1 19,-2 1,0 1,-1 1,-1l7 -5c3,0 9,0 13,0 13,-1 13,-6 22,-7 11,-2 17,1 27,-3 10,-4 7,-5 24,-6 13,0 12,-3 25,-5 10,-1 18,-1 27,-2 23,-3 17,-7 50,-9 19,0 26,-7 50,-7 19,0 42,1 58,-2 43,-11 122,-5 172,-5 20,0 33,5 52,6 18,1 43,-1 59,1 9,1 12,6 21,7 9,2 19,1 28,1 11,1 15,4 23,7 13,4 30,-1 42,3 9,4 0,2 10,4 9,2 20,0 29,1 10,2 12,7 20,9 15,2 10,-3 24,5 10,5 15,2 27,3 9,2 8,6 19,8 6,0 9,-1 15,1 4,2 2,3 8,5 7,3 17,2 24,6 11,7 12,1 23,6 13,8 12,3 23,6 6,2 2,3 10,6 5,2 7,1 11,3 7,2 3,2 11,5 5,1 7,1 11,2 7,3 4,4 10,6 4,1 8,1 12,2 10,2 3,2 10,5 5,2 7,1 11,3l23 11c1,0 2,1 2,1 5,4 9,2 16,5 8,4 0,3 10,6 3,1 4,0 7,1 8,3 6,4 14,8l21 9c9,4 -2,1 8,5l20 9c11,3 4,-1 12,4l39 18c4,2 5,3 9,5 3,1 7,4 10,6l28 15c6,3 10,7 18,11 4,1 9,3 11,5l16 13c3,2 6,2 10,4 3,1 6,4 9,6l78 54c6,4 13,6 18,11 5,5 10,9 16,13l15 11c0,0 1,0 1,1 0,0 1,0 1,1l17 12c6,5 12,6 15,13zm-2860 1144l0 292 0 0c0,9 0,2 3,9 1,6 1,5 1,12 1,23 4,47 9,69 2,9 2,29 5,46l8 45c8,40 15,78 26,118 1,4 1,6 2,11l78 233 103 211c1,3 2,5 4,8 2,3 0,0 2,3 1,2 1,3 3,5l65 106c9,12 20,25 28,38l5 7c3,4 3,5 6,8 4,6 6,9 11,15l119 143c4,5 8,8 12,13l148 141c29,22 56,49 86,70l31 22c3,3 4,2 7,4l55 38c3,2 3,2 7,5l25 16c6,4 9,6 15,10 3,2 6,4 8,6 22,14 77,44 101,56 23,11 45,24 69,35l196 78c12,4 26,10 39,14l41 11c7,2 13,4 20,6l20 6c7,2 13,2 21,4 35,12 73,16 109,24l44 7c8,2 11,3 21,4 10,2 26,2 35,4 21,6 55,5 73,8 10,2 2,4 10,4l294 0c3,0 6,-4 21,-4 18,-1 40,-3 59,-7 5,-1 4,-2 10,-3 8,-1 16,0 24,-1 10,-2 13,-2 22,-4l109 -20c10,-2 12,-3 22,-5 30,-6 135,-35 164,-47 19,-8 53,-17 76,-27l54 -22c10,-3 11,-5 19,-9l185 -93c2,-1 3,-2 5,-3 6,-3 11,-7 17,-10l16 -10c27,-17 55,-33 80,-52 5,-4 9,-6 15,-10l89 -67c6,-4 10,-8 16,-12 10,-8 18,-17 28,-25l41 -35c6,-6 8,-8 15,-13 5,-4 7,-8 13,-12l7 -7c3,-2 4,-4 7,-6l52 -52c1,-2 1,-2 3,-3 0,-1 0,-1 1,-1 0,-1 0,-1 1,-1l127 -149 81 -115c2,-4 3,-5 5,-9l31 -48c17,-30 35,-60 51,-91l31 -61c18,-35 32,-72 47,-108 15,-33 39,-102 49,-135 2,-8 3,-13 5,-20l18 -61c2,-7 2,-13 4,-21 3,-7 4,-14 6,-22l18 -88c7,-34 10,-56 13,-90 1,-10 1,-3 3,-10 5,-17 6,-42 7,-59 0,-4 0,-9 0,-13 2,-10 4,-3 4,-11l0 -293c0,-8 -2,-1 -3,-9 -3,-11 -3,-52 -7,-71 -2,-5 -3,-5 -4,-11 -2,-17 0,-26 -5,-47 -5,-23 -8,-62 -16,-88 -3,-7 -2,-14 -4,-21l-14 -53c-1,-6 -1,-9 -1,-12l-6 -20c-20,-76 -46,-143 -74,-215 -21,-56 -65,-141 -94,-194l-29 -50c-3,-5 -1,-4 -4,-8 -24,-37 -48,-75 -74,-110l-74 -97c-8,-11 -17,-19 -24,-29 -22,-28 -49,-53 -73,-80 -12,-15 -26,-30 -40,-42l-8 -6c0,0 -1,-2 -2,-2l-164 -141c0,0 -1,-1 -1,-1l-9 -7c-27,-21 -64,-44 -93,-64l-226 -127c-5,-2 -4,-1 -10,-3l-81 -37c-4,-1 -7,-2 -10,-3l-57 -22c-19,-6 -79,-28 -99,-32 -4,-1 -8,-1 -11,-2 -3,-1 -6,-3 -10,-4l-126 -31c-17,-4 -72,-11 -89,-15l-141 -18 -270 0c-11,0 -14,3 -22,4 -24,3 -49,2 -71,7 -14,4 -31,2 -47,6l-45 9c-11,2 -9,3 -21,4 -8,0 -15,1 -22,3l-86 20c-16,3 -35,9 -50,14l-129 42c-6,2 -5,1 -10,3 -5,3 -4,3 -10,5l-92 37c-6,3 -13,7 -18,9 -39,15 -105,50 -139,71 -11,7 -22,12 -33,19l-202 140c0,0 -1,0 -1,0l-13 11c-10,8 -20,15 -29,24 -13,13 -28,23 -41,35 -28,27 -59,52 -84,81 -2,2 -1,1 -3,3 -3,3 -4,4 -7,7l-9 10c-1,0 -1,1 -1,1 -18,19 -36,37 -52,58l-83 101c-4,5 -8,9 -11,14l-32 46c-5,6 -7,10 -11,15 -4,7 -7,10 -11,17l-69 113c-21,33 -37,69 -55,104 -2,5 -5,12 -8,17l-68 168c-2,8 -4,12 -6,20 -5,15 -13,33 -16,49 -1,4 -2,7 -4,10 -2,7 -3,15 -5,22 -12,34 -17,68 -27,103 -2,8 -3,15 -5,22l-21 135c-1,8 -7,28 -8,46 -1,9 -1,16 -2,23 0,5 0,9 0,14 -2,10 -4,2 -4,10z"/>
    <path fill="#010000" d="M1557 3163c-2,27 5,14 9,29 5,25 1,5 7,19 2,5 0,4 3,10l13 26c4,8 2,3 6,8l21 34c3,8 5,10 11,15 3,1 4,1 7,3 6,5 1,1 5,6 14,17 7,7 19,18l27 28 43 28c9,5 3,4 11,7 14,4 3,-2 12,6 5,5 1,2 6,3l6 2c15,7 16,4 21,9l4 4c5,3 1,0 9,2 1,0 1,1 2,1l4 2 3 6c13,0 16,-2 25,3 22,12 15,-3 45,10 16,6 111,6 129,-2 10,-5 14,-3 25,-3 19,0 10,-3 20,-8 9,-4 12,3 22,-5 9,-7 -1,-3 13,-6 12,-2 2,-3 16,-6 23,-4 -2,-2 19,-8 12,-3 5,-3 13,-7 3,-1 3,-1 6,-2 9,-3 19,-7 24,-14 2,-6 -2,-5 3,-5 9,-11 2,3 21,-15 6,-7 12,-10 20,-18l30 -32c6,-6 0,-3 7,-3 0,-5 -3,-1 7,-11 9,-10 7,-13 12,-19 6,-8 5,-3 12,-18 4,-7 5,-7 7,-10 3,-6 0,-7 4,-12 3,-5 2,2 6,-9 4,-10 1,-3 5,-10 3,-6 2,-7 4,-12 2,-4 4,-5 5,-10 2,-6 1,-8 3,-13 3,-6 4,-2 6,-10 1,-6 -1,-8 1,-15 4,-12 6,-4 7,-24 0,-23 8,-14 8,-57 0,-17 1,-77 -3,-91 -3,-12 -5,-12 -5,-26 -1,-18 -4,-13 -7,-24 -1,-5 -1,-9 -2,-14 -2,-8 -3,-1 -4,-13l-1 -13c-7,-1 -3,1 -7,-3 -2,-2 0,2 -2,-4 -1,-4 -1,-9 -2,-13l-5 -3c-3,-15 -2,-7 -7,-16l-5 -13c-3,-5 0,4 -2,-4 -5,-3 -5,-8 -10,-14 -5,-8 -5,-5 -9,-12 -10,-18 -27,-34 -41,-49l-36 -33c-6,-6 -3,-4 -13,-8 -5,-3 -7,-6 -13,-10 -11,-8 -63,-33 -76,-36 -13,-2 -7,-5 -16,-7 -8,-2 -11,1 -19,-3 -9,-4 -5,-5 -18,-6 -7,0 -14,1 -21,-1 -7,-2 -6,-5 -16,-6l-111 1c-8,2 -9,4 -17,6 -7,1 -14,0 -21,1 -9,1 -7,5 -16,7 -8,1 -12,-1 -19,2 -5,3 0,2 -6,5 -5,2 -5,1 -10,2 -10,3 -4,4 -16,7 -11,3 -34,16 -45,22 -6,4 -7,3 -14,8 -8,6 -6,6 -14,10 -18,8 -54,50 -70,65 -16,16 -11,16 -18,26 -3,5 -6,6 -10,13 -4,7 -5,9 -8,15 -6,8 -1,5 -7,14l-12 24c-5,22 -5,5 -9,24 -2,12 -4,7 -6,15 -3,9 0,10 -5,19 -4,8 -4,6 -4,17 -1,19 -6,22 -7,38 -3,24 -1,63 -1,89 0,21 5,26 7,39 1,13 -2,17 3,32 0,0 0,1 0,1 1,0 1,1 1,1 0,1 0,2 1,2 0,0 0,1 0,2z"/>
   </g>
   <path fill="#FE0000" d="M3037 2359l-28 -24c-5,-5 -10,-7 -15,-13 -3,-2 -5,-4 -8,-6l-6 -5c-3,-7 -9,-8 -15,-13l-17 -12c0,-1 -1,-1 -1,-1 0,-1 -1,-1 -1,-1l-15 -11c-6,-4 -11,-8 -16,-13 -5,-5 -12,-7 -18,-11l-78 -54c-3,-2 -6,-5 -9,-6 -4,-2 -7,-2 -10,-4l-16 -13c-2,-2 -7,-4 -11,-5 -8,-4 -12,-8 -18,-11l-28 -15c-3,-2 -7,-5 -10,-6 -4,-2 -5,-3 -9,-5l-39 -18c-8,-5 -1,-1 -12,-4l-20 -9c-10,-4 1,-1 -8,-5l-21 -9c-8,-4 -6,-5 -14,-8 -3,-1 -4,0 -7,-1 -10,-3 -2,-2 -10,-6 -7,-3 -11,-1 -16,-5 0,0 -1,-1 -2,-1l-23 -11c-4,-2 -6,-1 -11,-3 -7,-3 0,-3 -10,-5 -4,-1 -8,-1 -12,-2 -6,-2 -3,-3 -10,-6 -4,-1 -6,-1 -11,-2 -8,-3 -4,-3 -11,-5 -4,-2 -6,-1 -11,-3 -8,-3 -4,-4 -10,-6 -11,-3 -10,2 -23,-6 -11,-5 -12,1 -23,-6 -7,-4 -17,-3 -24,-6 -6,-2 -4,-3 -8,-5 -6,-2 -9,-1 -15,-1 -11,-2 -10,-6 -19,-8 -12,-1 -17,2 -27,-3 -14,-8 -9,-3 -24,-5 -8,-2 -10,-7 -20,-9 -9,-1 -20,1 -29,-1 -10,-2 -1,0 -10,-4 -12,-4 -29,1 -42,-3 -8,-3 -12,-6 -23,-7 -9,0 -19,1 -28,-1 -9,-1 -12,-6 -21,-7 -16,-2 -41,0 -59,-1 -19,-1 -32,-6 -52,-6 -50,0 -129,-6 -172,5 -16,3 -39,2 -58,2 -24,0 -31,7 -50,7 -33,2 -27,6 -50,9 -9,1 -17,1 -27,2 -13,2 -12,5 -25,5 -17,1 -14,2 -24,6 -10,4 -16,1 -27,3 -9,1 -9,6 -22,7 -4,0 -10,0 -13,0l-7 5c0,0 0,1 -1,1 -2,3 -15,2 -19,2 -9,2 -9,4 -14,6 -6,2 -10,1 -16,3 -6,2 -7,4 -15,6 -8,2 -8,-1 -15,3 -9,5 -3,4 -15,5 -16,3 -27,14 -42,17 -11,2 -7,-2 -16,4 -9,6 -3,2 -14,5 -8,2 -5,4 -13,6 -13,4 -5,-1 -15,6 -8,5 -7,1 -15,4 -10,5 2,4 -13,7 -14,2 -4,-1 -14,5l-26 12c-9,4 -3,4 -15,6 -8,2 -30,13 -30,13l-17 9c-3,1 -5,1 -7,2l-136 79c-6,2 -3,1 -7,3 0,1 -1,1 -1,1l-34 23c-8,8 -21,13 -30,19l-24 19c-22,14 -44,34 -65,49 -10,7 -12,11 -21,18 -7,6 -13,11 -21,18 0,0 0,0 -1,1l-8 6c-21,15 -62,56 -81,76 -5,5 -5,7 -8,11l-48 44c-9,11 -24,24 -31,34 -13,20 -28,36 -43,55 -4,5 -3,7 -7,12 -3,3 -7,7 -10,10l-33 45c-4,6 -5,7 -8,11l-33 47c-6,8 -9,16 -15,24 -14,19 -24,41 -36,62 -2,4 -4,9 -7,13 -2,3 -1,1 -3,6 -2,4 -1,2 -3,6l-22 37c-6,9 -7,19 -12,28l-12 28c-3,9 -4,5 -7,11 -4,8 1,5 -6,14 -3,5 -1,0 -3,7l-6 13c-2,4 -1,5 -2,8 -4,12 -3,3 -6,10l-10 29c-3,9 -5,7 -7,13 -3,9 1,6 -5,15 -5,9 -1,5 -5,14 -2,8 -4,3 -6,13 -5,20 -6,10 -10,29 -1,9 -3,6 -6,14 -2,6 -1,10 -3,17 -3,7 -4,4 -6,13 -5,32 -6,9 -8,31 -1,16 -6,11 -8,31 -1,15 -1,6 -5,15 -3,5 -2,10 -3,17 -1,18 -7,13 -7,31 -1,10 0,10 -4,17 -3,7 -9,16 5,15 4,0 6,-2 9,-4l8 -7c8,-6 17,-10 22,-16 7,-8 20,-14 28,-18l59 -33c4,-2 4,-2 7,-4 13,-6 1,3 19,-8l3 -1c10,-5 7,-7 21,-10 10,-3 2,-2 13,-6l45 -18c8,-3 20,-11 28,-14 7,-3 7,0 14,-5 4,-2 -2,0 7,-3 4,-2 5,-1 9,-3 7,-2 4,-4 14,-6 13,-2 5,1 16,-5 8,-4 14,-2 22,-7l8 -4c11,-2 5,-1 14,-5 8,-4 11,-1 19,-4 5,-1 6,-4 13,-6 9,-3 7,-1 16,-5 10,-5 9,-1 18,-4 6,-2 3,-6 14,-7 30,-4 15,-6 34,-8 12,-1 5,-1 14,-5 8,-4 9,-2 18,-4 4,0 9,-4 14,-5 9,-3 17,1 25,-5 0,0 0,0 1,-1 8,-6 14,-3 24,-6 8,-2 6,-4 14,-6 10,-2 9,1 18,-4 17,-7 22,-2 35,-6 7,-2 6,-4 13,-6 7,-1 13,0 21,-2 9,-2 6,-3 15,-5 19,-4 10,2 34,-7 7,-3 13,-2 20,-2 15,-1 19,-7 33,-8 19,-1 21,-4 35,-7 12,-2 21,0 25,-15 3,-12 -1,-28 2,-40 3,-13 5,-17 6,-34 1,-17 7,-14 8,-33 1,-12 0,-9 5,-18 4,-8 2,-18 6,-24 2,-3 3,-4 4,-6 2,-7 0,-12 2,-20 3,-9 3,-5 5,-15l38 -85c4,-9 7,-21 12,-29l9 -14c2,-4 0,1 4,-5 1,-4 1,-4 3,-7 2,-4 6,-8 9,-12l52 -74c7,-9 12,-14 19,-22 5,-6 4,-6 8,-12 3,-3 7,-6 10,-10 13,-16 27,-27 41,-42l23 -18c14,-10 20,-20 33,-30l49 -34c6,-5 6,-3 13,-8 2,-1 4,-2 6,-3l3 -3c1,0 2,-1 3,-2 7,-4 7,-1 14,-7 8,-7 3,-3 14,-6 10,-4 15,-9 27,-14l35 -16c4,-2 -1,0 3,-2l43 -18c1,0 1,0 2,-1 17,-7 36,-10 36,-10 10,-4 2,-5 16,-6l48 -12c6,-4 9,-5 17,-5 18,-1 21,-6 34,-8 13,-1 28,0 39,-2 46,-9 109,-9 156,-1 17,3 39,0 57,4 7,2 8,4 16,6 6,0 13,-1 19,1 18,3 -7,4 34,7 15,1 1,1 14,6 8,4 7,-1 16,4 10,6 3,4 17,6 9,1 7,4 14,6 8,3 12,1 20,5l18 8c7,6 0,2 8,4l94 49c26,13 59,42 76,50 7,4 7,3 12,9 15,17 29,24 43,38l42 42c14,14 23,30 38,44 9,9 12,18 20,27l8 8c6,6 4,5 8,13 2,4 5,8 8,12 6,8 9,15 16,25 2,3 1,1 4,5l37 77c5,8 17,35 19,45 2,14 1,1 6,12 4,10 -1,8 5,17 3,5 1,-1 3,6 2,5 1,8 1,12 2,10 5,5 7,14 2,6 1,12 3,17 2,7 5,7 6,16 3,28 4,17 8,32 3,12 0,23 5,37 6,18 -6,56 21,59 16,2 17,8 33,8 9,0 12,-1 19,2 19,5 20,4 36,7 8,1 11,5 15,6 6,1 13,0 19,1 13,1 5,3 16,6 6,1 10,1 17,2 14,1 7,1 17,5 11,5 20,0 34,7 9,4 25,3 34,7 11,4 17,2 34,8 6,3 9,2 16,3 12,2 6,3 15,6 7,3 11,1 18,2 7,2 6,5 14,7 12,5 22,9 34,10 13,1 6,1 14,5 7,4 11,1 18,4 6,2 6,5 13,6l33 9c9,1 7,4 15,6 9,3 7,-1 15,4 10,6 32,11 45,18 7,4 9,2 16,4l28 13c4,2 4,1 8,2l14 7c1,1 4,2 4,2 0,1 1,1 1,1 1,0 2,1 3,2 8,5 6,2 15,5l3 1c11,4 31,7 43,15l55 28c16,7 15,10 24,16 3,2 2,1 6,4l44 28c9,4 7,2 14,8 5,5 6,5 12,10 6,3 6,5 14,5 1,-7 -4,-12 -6,-36 -1,-8 -2,-10 -5,-16 -4,-10 -1,-11 -3,-20 -2,-9 -5,-4 -7,-15 -1,-9 1,-14 -2,-21 -5,-8 -5,-2 -6,-16 -1,-18 -3,-10 -9,-36 -3,-12 -5,-6 -7,-17 -4,-23 -5,-12 -8,-24 -2,-5 0,-4 -3,-10 -3,-8 -4,-1 -6,-15l-11 -34c-5,-9 -3,-9 -4,-21 -3,-7 -2,3 -6,-8l-7 -15c0,-1 -1,-2 -1,-3l-25 -51c-4,-11 2,-3 -5,-12 -9,-10 -14,-34 -22,-48 -3,-5 -2,-2 -5,-10l-25 -43c-3,-10 -1,-5 -6,-12 -17,-24 -5,-14 -16,-33 -4,-7 -4,-4 -8,-10l-22 -37c-4,-5 0,0 -4,-6l-41 -62c-5,-6 -5,-10 -13,-20 -6,-8 -11,-9 -15,-19 -4,-8 -1,-3 -6,-9l-17 -19c-3,-5 -2,-6 -6,-11 -5,-5 -4,-1 -8,-8 -7,-11 -16,-16 -25,-28 -10,-14 -13,-12 -23,-27l-41 -44c-14,-15 -60,-65 -76,-77 -5,-4 -6,-3 -10,-8 -7,-7 -9,-13 -18,-17z"/>
   <rect fill="none" width="3876" height="5420"/>
  </g>
 </g>
</svg>
