<?xml version="1.0" encoding="UTF-8"?>
<!DOCTYPE svg PUBLIC "-//W3C//DTD SVG 1.0//EN" "http://www.w3.org/TR/2001/REC-SVG-20010904/DTD/svg10.dtd">
<!-- Creator: CorelDRAW 2019 (64 Bit) -->
<svg xmlns="http://www.w3.org/2000/svg" xml:space="preserve" width="500px" height="499px" version="1.0" shape-rendering="geometricPrecision" text-rendering="geometricPrecision" image-rendering="optimizeQuality" fill-rule="evenodd" clip-rule="evenodd"
viewBox="0 0 50000 49910"
 xmlns:xlink="http://www.w3.org/1999/xlink">
 <g id="Camada_x0020_1">
  <metadata id="CorelCorpID_0Corel-Layer"/>
  <path fill="black" d="M25319 46323c-1244,0 -2088,-20 -3323,-170 -1071,-129 -2104,-375 -3119,-656l-953 -298c-553,-183 -1047,-401 -1582,-612 -645,-255 -2095,-1016 -2680,-1403 -129,-85 -256,-154 -392,-245l-561 -383c-71,-46 -116,-76 -184,-122 -306,-204 -601,-438 -887,-671l-518 -425c-221,-206 -460,-388 -673,-602l-1747 -1839c-31,-37 -50,-49 -80,-85l-564 -711c-96,-130 -177,-245 -269,-368 -732,-972 -1351,-2042 -1896,-3130 -922,-1844 -1504,-3587 -1917,-5634 -95,-469 -317,-1706 -317,-2209 4620,0 9176,24 13804,24 189,356 352,759 527,1124 392,816 826,1606 1384,2321 679,868 1539,1553 2634,1944 1030,367 1959,487 3100,487 527,0 1057,-42 1510,-118 1147,-193 2245,-645 3132,-1400 212,-180 453,-389 624,-603 181,-227 380,-441 544,-683 601,-887 853,-1418 1340,-2388 73,-146 222,-407 259,-566 314,0 540,-24 850,-24 2034,0 4040,-47 6064,-47l2596 -24c280,0 592,27 859,-13l3459 -34c0,796 -610,3458 -858,4216 -294,894 -608,1939 -1014,2785 -142,295 -251,598 -393,881 -207,409 -403,850 -642,1246 -243,401 -452,811 -713,1199 -506,753 -1011,1505 -1613,2186 -296,335 -602,675 -931,980l-342 295c-342,288 -674,587 -1032,856 -70,53 -101,83 -171,135l-928 678c-61,43 -116,75 -182,124 -302,228 -634,431 -957,624l-597 347c-77,45 -128,81 -206,124l-1259 653c-1339,669 -3235,1365 -4681,1666 -1271,263 -2581,529 -3893,543 -131,2 -150,24 -281,26 -110,1 -222,-1 -331,-1zm-245 -46323l290 0c17,1 33,2 45,4 234,26 493,15 760,19 223,3 499,47 730,48l2107 229c669,110 1276,225 1929,384 798,195 1638,425 2403,712 730,273 1489,547 2190,901 99,50 176,76 275,126 92,46 166,83 252,126 928,464 1388,761 2242,1273 706,422 1390,925 2032,1437 148,119 282,223 435,344l320 269c42,34 57,56 98,91l219 183c276,213 796,776 998,937 190,152 976,995 1236,1289l260 306c130,140 231,276 355,424l525 654c513,657 959,1357 1417,2053 418,636 779,1314 1118,1996l260 519c75,169 164,333 239,516l462 1096c75,191 149,383 215,563 515,1393 885,2800 1150,4277 108,599 319,2207 318,2798 -1,252 18,480 22,756 1,127 21,184 24,313l0 92c-8,1092 -57,2233 -169,3248 -102,916 -271,1762 -458,2610 -314,1423 -632,2253 -1093,3532 -69,192 -145,364 -225,554 -225,538 -477,1056 -737,1575 -504,1008 -1099,1947 -1721,2881 -110,165 -206,300 -323,456 -345,459 -721,1000 -1108,1416l-259 307c-128,136 -235,256 -356,400l-950 985c-250,193 -531,552 -799,758l-1028 884c-424,330 -858,680 -1298,991l-929 628c-465,310 -958,593 -1447,866 -444,248 -1065,592 -1514,774l-1081 477c-713,320 -1528,557 -2264,804 -1130,379 -2615,655 -3797,827 -468,68 -910,95 -1402,132 -809,62 -1699,70 -2533,70l-40 0c-279,0 -503,-26 -755,-24 -242,3 -494,-44 -732,-47 -756,-10 -2590,-309 -3359,-486l-3008 -839c-551,-206 -1118,-415 -1656,-657 -172,-77 -354,-165 -522,-233 -107,-43 -169,-84 -273,-128 -105,-45 -159,-70 -258,-119 -105,-52 -160,-92 -259,-142 -593,-301 -1165,-622 -1730,-960l-1379 -910c-161,-111 -285,-218 -448,-331 -154,-106 -282,-211 -429,-326 -329,-259 -657,-498 -960,-786 -223,-212 -477,-404 -696,-625l-967 -969c-67,-69 -121,-120 -189,-188l-377 -402c-349,-418 -723,-821 -1052,-1261 -112,-151 -216,-272 -330,-425 -516,-687 -1439,-2030 -1818,-2783l-409 -747c-46,-93 -83,-166 -126,-252 -170,-340 -339,-685 -495,-1039l-877 -2214c-409,-1234 -689,-2354 -950,-3651 -89,-440 -149,-860 -210,-1324 -57,-435 -112,-920 -134,-1400 -15,-311 -63,-708 -71,-1035l0 -1348c0,-1731 289,-3818 726,-5504 160,-614 341,-1203 539,-1797 374,-1122 858,-2207 1386,-3263l550 -1007c272,-501 580,-969 895,-1441 410,-615 847,-1210 1313,-1779l537 -642c196,-255 438,-478 644,-725 191,-228 1161,-1173 1450,-1428l837 -721c768,-669 1609,-1251 2454,-1818l713 -443c1049,-690 2952,-1582 4170,-2036 2440,-908 5080,-1530 7713,-1607 219,-6 771,-39 1147,-48zm-4215 24967c0,-768 78,-1244 377,-1841 457,-911 1144,-1525 2087,-1902 1661,-664 3737,-366 4890,1060 79,97 146,178 216,280 393,576 689,1520 689,2285 0,781 -30,1265 -378,1958 -410,817 -1103,1479 -1968,1807 -843,320 -1149,341 -2043,341 -674,0 -1713,-339 -2212,-715 -254,-192 -304,-208 -543,-448 -707,-706 -1115,-1750 -1115,-2825zm-3398 -1865c-1159,0 -2270,24 -3445,24 -595,0 -1117,24 -1699,24 -582,0 -1164,0 -1746,0 -588,0 -1104,23 -1699,23 -582,0 -1164,0 -1746,0 -595,0 -1119,24 -1723,24 -582,0 -1164,0 -1746,0 0,-641 419,-2609 553,-3223 302,-1386 1148,-3555 1823,-4808l560 -1021c432,-717 888,-1413 1389,-2080l1733 -2042c59,-62 105,-105 166,-165 109,-109 206,-215 318,-319 64,-59 100,-75 166,-141l649 -602c70,-62 105,-82 176,-153l352 -286c115,-94 218,-181 334,-279 768,-653 2515,-1741 3469,-2218l866 -409c728,-362 1958,-799 2755,-1019l1006 -269c708,-180 1394,-299 2124,-401 384,-54 768,-82 1150,-124 573,-64 1726,-51 2285,-51 1906,0 4156,378 5955,982 308,103 631,194 935,316 147,58 307,113 456,181 372,167 745,297 1109,471 77,37 135,68 205,103 69,35 127,66 204,103l645 321c1163,605 2411,1442 3405,2282l839 719c77,62 104,84 175,156 307,310 682,596 947,940l893 995c112,113 183,228 285,352l286 351c97,130 174,242 269,368 642,855 1188,1769 1710,2703 386,690 708,1418 1004,2158 726,1817 1158,3579 1429,5532 24,169 61,418 61,577l-13757 0c-87,0 -126,-169 -158,-243 -47,-110 -86,-171 -135,-290 -46,-112 -89,-178 -135,-290 -261,-645 -968,-1852 -1392,-2383 -66,-83 -123,-158 -185,-240l-821 -855c-77,-69 -157,-118 -235,-189 -302,-270 -674,-481 -1037,-662 -101,-51 -181,-97 -284,-141 -1766,-763 -4318,-821 -6047,-135 -395,157 -764,336 -1126,550 -261,156 -485,338 -722,528 -90,72 -148,135 -229,197 -172,131 -651,700 -786,865 -254,314 -464,653 -686,989 -392,592 -833,1611 -1147,2204z"/>
 </g>
</svg>
